<svg width="1278" height="705" viewBox="0 0 1278 705" fill="none" xmlns="http://www.w3.org/2000/svg">
<rect y="0.96875" width="1278" height="703.366" fill="#EFF7FF"/>
<path d="M548.12 76.8C543.587 76.8 539.947 75.4267 537.2 72.68C534.453 69.9067 533.08 66.3467 533.08 62C533.08 57.6533 534.453 54.1067 537.2 51.36C539.947 48.5867 543.587 47.2 548.12 47.2C552.173 47.2 555.467 48.2 558 50.2C560.56 52.1733 562.027 54.8267 562.4 58.16H555.52C555.147 56.56 554.32 55.3067 553.04 54.4C551.76 53.4667 550.133 53 548.16 53C545.547 53 543.507 53.8133 542.04 55.44C540.573 57.04 539.84 59.2267 539.84 62C539.84 64.7733 540.573 66.9733 542.04 68.6C543.507 70.2 545.547 71 548.16 71C550.133 71 551.76 70.5467 553.04 69.64C554.32 68.7067 555.147 67.44 555.52 65.84H562.4C562.027 69.1733 560.56 71.84 558 73.84C555.467 75.8133 552.173 76.8 548.12 76.8ZM583.003 73.72C581.083 75.64 578.497 76.6 575.243 76.6C571.99 76.6 569.39 75.64 567.443 73.72C565.497 71.8 564.523 69.3467 564.523 66.36C564.523 63.3733 565.497 60.9333 567.443 59.04C569.39 57.12 571.99 56.16 575.243 56.16C578.497 56.16 581.083 57.12 583.003 59.04C584.95 60.9333 585.923 63.3733 585.923 66.36C585.923 69.3467 584.95 71.8 583.003 73.72ZM575.243 71.4C576.657 71.4 577.777 70.9333 578.603 70C579.43 69.0667 579.843 67.8533 579.843 66.36C579.843 64.8667 579.43 63.6533 578.603 62.72C577.777 61.7867 576.657 61.32 575.243 61.32C573.803 61.32 572.67 61.7867 571.843 62.72C571.043 63.6533 570.643 64.8667 570.643 66.36C570.643 67.8533 571.043 69.0667 571.843 70C572.67 70.9333 573.803 71.4 575.243 71.4ZM589.442 76V56.72H595.562V59.52C596.709 57.3067 598.789 56.2 601.802 56.2C606.495 56.2 608.842 58.8267 608.842 64.08V76H602.682V66.08C602.682 64.4267 602.415 63.2267 601.882 62.48C601.375 61.7333 600.509 61.36 599.282 61.36C596.802 61.36 595.562 62.88 595.562 65.92V76H589.442ZM623.507 71.24C624.361 71.24 625.067 71.2 625.627 71.12V76C624.454 76.2133 623.094 76.32 621.547 76.32C620.854 76.32 620.241 76.28 619.707 76.2C619.174 76.12 618.574 75.9467 617.907 75.68C617.241 75.3867 616.694 75 616.267 74.52C615.841 74.04 615.467 73.3467 615.147 72.44C614.854 71.5333 614.707 70.4667 614.707 69.24V61.56H611.667V56.72H614.707V51H620.827V56.72H625.187V61.56H620.827V67.96C620.827 69.2667 621.054 70.1467 621.507 70.6C621.961 71.0267 622.627 71.24 623.507 71.24ZM636.692 76.52C633.892 76.52 631.679 75.5733 630.052 73.68C628.426 71.7867 627.612 69.3467 627.612 66.36C627.612 63.4267 628.452 61 630.132 59.08C631.812 57.16 634.026 56.2 636.772 56.2C638.132 56.2 639.346 56.4933 640.412 57.08C641.479 57.6667 642.279 58.4667 642.812 59.48V56.72H648.892V76H642.812V73.28C642.279 74.24 641.452 75.0267 640.332 75.64C639.239 76.2267 638.026 76.52 636.692 76.52ZM638.452 71.44C639.919 71.44 641.052 70.96 641.852 70C642.652 69.04 643.052 67.8267 643.052 66.36C643.052 64.92 642.652 63.72 641.852 62.76C641.052 61.8 639.919 61.32 638.452 61.32C637.066 61.32 635.946 61.7867 635.092 62.72C634.266 63.6533 633.852 64.8667 633.852 66.36C633.852 67.8533 634.266 69.08 635.092 70.04C635.946 70.9733 637.066 71.44 638.452 71.44ZM662.773 76.6C659.626 76.6 657.12 75.6667 655.253 73.8C653.386 71.9067 652.453 69.4267 652.453 66.36C652.453 63.2933 653.386 60.8267 655.253 58.96C657.12 57.0933 659.626 56.16 662.773 56.16C665.626 56.16 667.946 56.8667 669.733 58.28C671.52 59.6933 672.533 61.6133 672.773 64.04H666.653C666.2 62.2267 664.92 61.32 662.813 61.32C661.48 61.32 660.44 61.76 659.693 62.64C658.946 63.52 658.573 64.76 658.573 66.36C658.573 67.96 658.946 69.2 659.693 70.08C660.44 70.96 661.48 71.4 662.813 71.4C664.92 71.4 666.2 70.5467 666.653 68.84H672.773C672.533 71.2133 671.52 73.1067 669.733 74.52C667.946 75.9067 665.626 76.6 662.773 76.6ZM686.32 71.24C687.173 71.24 687.88 71.2 688.44 71.12V76C687.266 76.2133 685.906 76.32 684.36 76.32C683.666 76.32 683.053 76.28 682.52 76.2C681.986 76.12 681.386 75.9467 680.72 75.68C680.053 75.3867 679.506 75 679.08 74.52C678.653 74.04 678.28 73.3467 677.96 72.44C677.666 71.5333 677.52 70.4667 677.52 69.24V61.56H674.48V56.72H677.52V51H683.64V56.72H688V61.56H683.64V67.96C683.64 69.2667 683.866 70.1467 684.32 70.6C684.773 71.0267 685.44 71.24 686.32 71.24ZM720.788 74.04C718.762 75.8267 716.002 76.72 712.508 76.72C709.015 76.72 706.255 75.8267 704.228 74.04C702.228 72.2533 701.228 69.7467 701.228 66.52V48H707.668V66.12C707.668 67.6933 708.095 68.92 708.948 69.8C709.828 70.68 711.015 71.12 712.508 71.12C714.002 71.12 715.175 70.68 716.028 69.8C716.908 68.92 717.348 67.6933 717.348 66.12V48H723.828V66.52C723.828 69.7467 722.815 72.2533 720.788 74.04ZM736.146 76.6C733.373 76.6 731.16 76 729.506 74.8C727.853 73.6 727.026 72.0667 727.026 70.2H733.106C733.106 70.8667 733.4 71.4133 733.986 71.84C734.573 72.2667 735.333 72.48 736.266 72.48C736.933 72.48 737.466 72.32 737.866 72C738.293 71.68 738.506 71.24 738.506 70.68C738.506 69.8 738.04 69.2533 737.106 69.04L732.386 67.84C730.813 67.44 729.613 66.76 728.786 65.8C727.96 64.84 727.546 63.6667 727.546 62.28C727.546 60.4667 728.293 59 729.786 57.88C731.28 56.7333 733.28 56.16 735.786 56.16C738.56 56.16 740.68 56.6933 742.146 57.76C743.64 58.8267 744.386 60.2933 744.386 62.16H738.346C738.346 61.4933 738.106 60.9733 737.626 60.6C737.173 60.2267 736.533 60.04 735.706 60.04C735.04 60.04 734.506 60.1867 734.106 60.48C733.706 60.7733 733.506 61.16 733.506 61.64C733.506 62.4933 734.053 63.0667 735.146 63.36L739.706 64.6C741.226 65 742.413 65.6667 743.266 66.6C744.146 67.5067 744.586 68.6267 744.586 69.96C744.586 71.96 743.826 73.5733 742.306 74.8C740.813 76 738.76 76.6 736.146 76.6Z" fill="#0048FF"/>
<rect x="339.5" y="168.632" width="599" height="49" rx="4.5" fill="white" stroke="#E4E4E4"/>
<path d="M359.706 199.632V185.632H367.666V187.272H361.526V192.332H367.666V193.972H361.526V199.632H359.706ZM373.65 199.872C372.584 199.872 371.73 199.552 371.09 198.912C370.464 198.259 370.15 197.319 370.15 196.092V190.412H371.89V195.672C371.89 197.472 372.637 198.372 374.13 198.372C375.01 198.372 375.664 198.092 376.09 197.532C376.53 196.959 376.75 196.265 376.75 195.452V190.412H378.49V199.632H376.75V197.952C376.497 198.539 376.097 199.005 375.55 199.352C375.017 199.699 374.384 199.872 373.65 199.872ZM381.481 199.632V185.632H383.221V199.632H381.481ZM386.227 199.632V185.632H387.967V199.632H386.227ZM396.131 199.632V185.632H398.071L404.371 196.592V185.632H406.111V199.632H404.191L397.891 188.672V199.632H396.131ZM413.035 199.872C411.608 199.872 410.488 199.419 409.675 198.512C408.875 197.605 408.475 196.445 408.475 195.032C408.475 193.632 408.888 192.472 409.715 191.552C410.555 190.632 411.675 190.172 413.075 190.172C413.795 190.172 414.442 190.339 415.015 190.672C415.588 191.005 416.022 191.459 416.315 192.032V190.412H418.035V199.632H416.315V198.012C416.022 198.572 415.575 199.025 414.975 199.372C414.375 199.705 413.728 199.872 413.035 199.872ZM413.275 198.312C414.248 198.312 415.008 197.999 415.555 197.372C416.115 196.732 416.395 195.952 416.395 195.032C416.395 194.099 416.115 193.319 415.555 192.692C415.008 192.052 414.248 191.732 413.275 191.732C412.342 191.732 411.595 192.045 411.035 192.672C410.475 193.285 410.195 194.072 410.195 195.032C410.195 195.992 410.475 196.779 411.035 197.392C411.595 198.005 412.342 198.312 413.275 198.312ZM421.031 199.632V190.412H422.771V192.092C422.958 191.545 423.291 191.092 423.771 190.732C424.251 190.359 424.838 190.172 425.531 190.172C427.118 190.172 428.105 190.832 428.491 192.152C428.705 191.579 429.078 191.105 429.611 190.732C430.145 190.359 430.758 190.172 431.451 190.172C433.665 190.172 434.771 191.379 434.771 193.792V199.632H433.031V194.132C433.031 192.492 432.365 191.672 431.031 191.672C429.525 191.672 428.771 192.725 428.771 194.832V199.632H427.031V194.252C427.031 192.532 426.371 191.672 425.051 191.672C424.331 191.672 423.771 191.939 423.371 192.472C422.971 192.992 422.771 193.779 422.771 194.832V199.632H421.031ZM445.852 194.492C445.852 194.745 445.832 195.092 445.792 195.532H438.652C438.665 196.412 438.932 197.105 439.452 197.612C439.972 198.105 440.672 198.352 441.552 198.352C442.779 198.352 443.592 197.899 443.992 196.992H445.732C445.572 197.845 445.105 198.539 444.332 199.072C443.559 199.605 442.632 199.872 441.552 199.872C440.139 199.872 439.012 199.439 438.172 198.572C437.345 197.692 436.932 196.505 436.932 195.012C436.932 193.545 437.345 192.372 438.172 191.492C438.999 190.612 440.099 190.172 441.472 190.172C442.779 190.172 443.832 190.572 444.632 191.372C445.445 192.172 445.852 193.212 445.852 194.492ZM438.652 194.192H444.132C444.132 193.379 443.892 192.739 443.412 192.272C442.945 191.805 442.292 191.572 441.452 191.572C440.625 191.572 439.959 191.812 439.452 192.292C438.959 192.772 438.692 193.405 438.652 194.192Z" fill="#BBBBBB"/>
<rect x="339.5" y="233.632" width="599" height="49" rx="4.5" fill="white" stroke="#E4E4E4"/>
<path d="M359.706 264.632V250.632H367.666V252.272H361.526V256.852H367.666V258.492H361.526V262.992H367.666V264.632H359.706ZM370.504 264.632V255.412H372.244V257.092C372.431 256.545 372.764 256.092 373.244 255.732C373.724 255.359 374.311 255.172 375.004 255.172C376.591 255.172 377.577 255.832 377.964 257.152C378.177 256.579 378.551 256.105 379.084 255.732C379.617 255.359 380.231 255.172 380.924 255.172C383.137 255.172 384.244 256.379 384.244 258.792V264.632H382.504V259.132C382.504 257.492 381.837 256.672 380.504 256.672C378.997 256.672 378.244 257.725 378.244 259.832V264.632H376.504V259.252C376.504 257.532 375.844 256.672 374.524 256.672C373.804 256.672 373.244 256.939 372.844 257.472C372.444 257.992 372.244 258.779 372.244 259.832V264.632H370.504ZM390.965 264.872C389.538 264.872 388.418 264.419 387.605 263.512C386.805 262.605 386.405 261.445 386.405 260.032C386.405 258.632 386.818 257.472 387.645 256.552C388.485 255.632 389.605 255.172 391.005 255.172C391.725 255.172 392.371 255.339 392.945 255.672C393.518 256.005 393.951 256.459 394.245 257.032V255.412H395.965V264.632H394.245V263.012C393.951 263.572 393.505 264.025 392.905 264.372C392.305 264.705 391.658 264.872 390.965 264.872ZM391.205 263.312C392.178 263.312 392.938 262.999 393.485 262.372C394.045 261.732 394.325 260.952 394.325 260.032C394.325 259.099 394.045 258.319 393.485 257.692C392.938 257.052 392.178 256.732 391.205 256.732C390.271 256.732 389.525 257.045 388.965 257.672C388.405 258.285 388.125 259.072 388.125 260.032C388.125 260.992 388.405 261.779 388.965 262.392C389.525 263.005 390.271 263.312 391.205 263.312ZM399.841 253.832C399.428 253.832 399.088 253.699 398.821 253.432C398.554 253.165 398.421 252.832 398.421 252.432C398.421 252.032 398.554 251.699 398.821 251.432C399.088 251.152 399.428 251.012 399.841 251.012C400.241 251.012 400.574 251.152 400.841 251.432C401.108 251.699 401.241 252.032 401.241 252.432C401.241 252.832 401.108 253.165 400.841 253.432C400.574 253.699 400.241 253.832 399.841 253.832ZM398.961 264.632V255.412H400.701V264.632H398.961ZM403.707 264.632V250.632H405.447V264.632H403.707ZM421.492 264.632L420.832 262.492H415.012L414.352 264.632H412.372L417.112 250.632H418.732L423.472 264.632H421.492ZM415.532 260.832H420.312L417.912 253.152L415.532 260.832ZM432.233 250.632H433.973V264.632H432.253V263.012C431.959 263.572 431.513 264.025 430.913 264.372C430.313 264.705 429.666 264.872 428.973 264.872C427.546 264.872 426.426 264.419 425.613 263.512C424.813 262.605 424.413 261.445 424.413 260.032C424.413 258.632 424.826 257.472 425.653 256.552C426.493 255.632 427.613 255.172 429.013 255.172C429.733 255.172 430.379 255.339 430.953 255.672C431.526 256.005 431.959 256.459 432.253 257.032V256.072H432.233V250.632ZM429.213 263.312C430.186 263.312 430.946 262.999 431.493 262.372C432.053 261.732 432.333 260.952 432.333 260.032C432.333 259.099 432.053 258.319 431.493 257.692C430.946 257.052 430.186 256.732 429.213 256.732C428.279 256.732 427.533 257.045 426.973 257.672C426.413 258.285 426.133 259.072 426.133 260.032C426.133 260.992 426.413 261.779 426.973 262.392C427.533 263.005 428.279 263.312 429.213 263.312ZM444.049 250.632H445.789V264.632H444.069V263.012C443.776 263.572 443.329 264.025 442.729 264.372C442.129 264.705 441.482 264.872 440.789 264.872C439.362 264.872 438.242 264.419 437.429 263.512C436.629 262.605 436.229 261.445 436.229 260.032C436.229 258.632 436.642 257.472 437.469 256.552C438.309 255.632 439.429 255.172 440.829 255.172C441.549 255.172 442.196 255.339 442.769 255.672C443.342 256.005 443.776 256.459 444.069 257.032V256.072H444.049V250.632ZM441.029 263.312C442.002 263.312 442.762 262.999 443.309 262.372C443.869 261.732 444.149 260.952 444.149 260.032C444.149 259.099 443.869 258.319 443.309 257.692C442.762 257.052 442.002 256.732 441.029 256.732C440.096 256.732 439.349 257.045 438.789 257.672C438.229 258.285 437.949 259.072 437.949 260.032C437.949 260.992 438.229 261.779 438.789 262.392C439.349 263.005 440.096 263.312 441.029 263.312ZM448.785 264.632V255.412H450.525V257.512C450.699 256.779 451.039 256.225 451.545 255.852C452.052 255.465 452.612 255.272 453.225 255.272C453.585 255.272 453.865 255.299 454.065 255.352V256.952C453.865 256.912 453.579 256.892 453.205 256.892C452.339 256.892 451.672 257.239 451.205 257.932C450.752 258.625 450.525 259.512 450.525 260.592V264.632H448.785ZM463.918 259.492C463.918 259.745 463.898 260.092 463.858 260.532H456.718C456.732 261.412 456.998 262.105 457.518 262.612C458.038 263.105 458.738 263.352 459.618 263.352C460.845 263.352 461.658 262.899 462.058 261.992H463.798C463.638 262.845 463.172 263.539 462.398 264.072C461.625 264.605 460.698 264.872 459.618 264.872C458.205 264.872 457.078 264.439 456.238 263.572C455.412 262.692 454.998 261.505 454.998 260.012C454.998 258.545 455.412 257.372 456.238 256.492C457.065 255.612 458.165 255.172 459.538 255.172C460.845 255.172 461.898 255.572 462.698 256.372C463.512 257.172 463.918 258.212 463.918 259.492ZM456.718 259.192H462.198C462.198 258.379 461.958 257.739 461.478 257.272C461.012 256.805 460.358 256.572 459.518 256.572C458.692 256.572 458.025 256.812 457.518 257.292C457.025 257.772 456.758 258.405 456.718 259.192ZM469.268 264.872C468.108 264.872 467.175 264.585 466.468 264.012C465.775 263.425 465.428 262.712 465.428 261.872H467.148C467.148 262.339 467.348 262.725 467.748 263.032C468.148 263.325 468.681 263.472 469.348 263.472C469.868 263.472 470.281 263.352 470.588 263.112C470.895 262.872 471.048 262.545 471.048 262.132C471.048 261.479 470.748 261.079 470.148 260.932L467.688 260.292C466.368 259.932 465.708 259.105 465.708 257.812C465.708 257.052 466.028 256.425 466.668 255.932C467.308 255.425 468.141 255.172 469.168 255.172C470.288 255.172 471.155 255.432 471.768 255.952C472.395 256.459 472.708 257.125 472.708 257.952H470.988C470.988 257.512 470.821 257.165 470.488 256.912C470.155 256.645 469.688 256.512 469.088 256.512C468.608 256.512 468.208 256.625 467.888 256.852C467.581 257.065 467.428 257.359 467.428 257.732C467.428 258.359 467.768 258.752 468.448 258.912L470.748 259.552C471.401 259.725 471.908 260.032 472.268 260.472C472.628 260.912 472.808 261.412 472.808 261.972C472.808 262.852 472.495 263.559 471.868 264.092C471.241 264.612 470.375 264.872 469.268 264.872ZM478.272 264.872C477.112 264.872 476.179 264.585 475.472 264.012C474.779 263.425 474.432 262.712 474.432 261.872H476.152C476.152 262.339 476.352 262.725 476.752 263.032C477.152 263.325 477.685 263.472 478.352 263.472C478.872 263.472 479.285 263.352 479.592 263.112C479.899 262.872 480.052 262.545 480.052 262.132C480.052 261.479 479.752 261.079 479.152 260.932L476.692 260.292C475.372 259.932 474.712 259.105 474.712 257.812C474.712 257.052 475.032 256.425 475.672 255.932C476.312 255.425 477.145 255.172 478.172 255.172C479.292 255.172 480.159 255.432 480.772 255.952C481.399 256.459 481.712 257.125 481.712 257.952H479.992C479.992 257.512 479.825 257.165 479.492 256.912C479.159 256.645 478.692 256.512 478.092 256.512C477.612 256.512 477.212 256.625 476.892 256.852C476.585 257.065 476.432 257.359 476.432 257.732C476.432 258.359 476.772 258.752 477.452 258.912L479.752 259.552C480.405 259.725 480.912 260.032 481.272 260.472C481.632 260.912 481.812 261.412 481.812 261.972C481.812 262.852 481.499 263.559 480.872 264.092C480.245 264.612 479.379 264.872 478.272 264.872Z" fill="#BBBBBB"/>
<rect x="339.5" y="298.632" width="599" height="49" rx="4.5" fill="white" stroke="#E4E4E4"/>
<path d="M364.726 315.632C366.099 315.632 367.226 316.085 368.106 316.992C368.986 317.899 369.426 319.059 369.426 320.472C369.426 321.872 368.986 323.025 368.106 323.932C367.226 324.839 366.099 325.292 364.726 325.292H361.526V329.632H359.706V315.632H364.726ZM364.626 323.652C365.492 323.652 366.206 323.352 366.766 322.752C367.326 322.152 367.606 321.392 367.606 320.472C367.606 319.539 367.326 318.772 366.766 318.172C366.206 317.572 365.492 317.272 364.626 317.272H361.526V323.652H364.626ZM376.187 320.172C378.481 320.172 379.627 321.432 379.627 323.952V329.632H377.887V324.712C377.887 323.672 377.701 322.905 377.327 322.412C376.967 321.919 376.381 321.672 375.567 321.672C374.727 321.672 374.081 321.945 373.627 322.492C373.187 323.039 372.967 323.792 372.967 324.752V329.632H371.227V315.632H372.967V322.112C373.221 321.512 373.621 321.039 374.167 320.692C374.727 320.345 375.401 320.172 376.187 320.172ZM386.595 329.872C385.129 329.872 383.962 329.412 383.095 328.492C382.229 327.559 381.795 326.399 381.795 325.012C381.795 323.625 382.229 322.472 383.095 321.552C383.962 320.632 385.129 320.172 386.595 320.172C388.049 320.172 389.209 320.639 390.075 321.572C390.955 322.492 391.395 323.639 391.395 325.012C391.395 326.399 390.955 327.559 390.075 328.492C389.209 329.412 388.049 329.872 386.595 329.872ZM384.335 327.392C384.895 328.005 385.649 328.312 386.595 328.312C387.542 328.312 388.289 328.005 388.835 327.392C389.382 326.765 389.655 325.972 389.655 325.012C389.655 324.065 389.382 323.285 388.835 322.672C388.289 322.045 387.542 321.732 386.595 321.732C385.649 321.732 384.895 322.045 384.335 322.672C383.789 323.285 383.515 324.072 383.515 325.032C383.515 325.979 383.789 326.765 384.335 327.392ZM393.649 329.632V320.412H395.389V322.112C395.642 321.512 396.042 321.039 396.589 320.692C397.149 320.345 397.822 320.172 398.609 320.172C400.902 320.172 402.049 321.432 402.049 323.952V329.632H400.309V324.712C400.309 323.672 400.122 322.905 399.749 322.412C399.389 321.919 398.802 321.672 397.989 321.672C397.149 321.672 396.502 321.945 396.049 322.492C395.609 323.039 395.389 323.792 395.389 324.752V329.632H393.649ZM413.137 324.492C413.137 324.745 413.117 325.092 413.077 325.532H405.937C405.951 326.412 406.217 327.105 406.737 327.612C407.257 328.105 407.957 328.352 408.837 328.352C410.064 328.352 410.877 327.899 411.277 326.992H413.017C412.857 327.845 412.391 328.539 411.617 329.072C410.844 329.605 409.917 329.872 408.837 329.872C407.424 329.872 406.297 329.439 405.457 328.572C404.631 327.692 404.217 326.505 404.217 325.012C404.217 323.545 404.631 322.372 405.457 321.492C406.284 320.612 407.384 320.172 408.757 320.172C410.064 320.172 411.117 320.572 411.917 321.372C412.731 322.172 413.137 323.212 413.137 324.492ZM405.937 324.192H411.417C411.417 323.379 411.177 322.739 410.697 322.272C410.231 321.805 409.577 321.572 408.737 321.572C407.911 321.572 407.244 321.812 406.737 322.292C406.244 322.772 405.977 323.405 405.937 324.192ZM420.545 329.632V315.632H422.485L428.785 326.592V315.632H430.525V329.632H428.605L422.305 318.672V329.632H420.545ZM437.029 329.872C435.962 329.872 435.109 329.552 434.469 328.912C433.842 328.259 433.529 327.319 433.529 326.092V320.412H435.269V325.672C435.269 327.472 436.016 328.372 437.509 328.372C438.389 328.372 439.042 328.092 439.469 327.532C439.909 326.959 440.129 326.265 440.129 325.452V320.412H441.869V329.632H440.129V327.952C439.876 328.539 439.476 329.005 438.929 329.352C438.396 329.699 437.762 329.872 437.029 329.872ZM444.86 329.632V320.412H446.6V322.092C446.786 321.545 447.12 321.092 447.6 320.732C448.08 320.359 448.666 320.172 449.36 320.172C450.946 320.172 451.933 320.832 452.32 322.152C452.533 321.579 452.906 321.105 453.44 320.732C453.973 320.359 454.586 320.172 455.28 320.172C457.493 320.172 458.6 321.379 458.6 323.792V329.632H456.86V324.132C456.86 322.492 456.193 321.672 454.86 321.672C453.353 321.672 452.6 322.725 452.6 324.832V329.632H450.86V324.252C450.86 322.532 450.2 321.672 448.88 321.672C448.16 321.672 447.6 321.939 447.2 322.472C446.8 322.992 446.6 323.779 446.6 324.832V329.632H444.86ZM466.62 320.172C467.94 320.172 469.014 320.625 469.84 321.532C470.667 322.425 471.08 323.592 471.08 325.032C471.08 326.445 470.654 327.605 469.8 328.512C468.947 329.419 467.854 329.872 466.52 329.872C465.814 329.872 465.16 329.705 464.56 329.372C463.974 329.039 463.534 328.585 463.24 328.012V329.632H461.5V315.632H463.24V322.032C463.534 321.459 463.98 321.005 464.58 320.672C465.194 320.339 465.874 320.172 466.62 320.172ZM466.28 328.312C467.174 328.312 467.907 328.005 468.48 327.392C469.054 326.779 469.34 325.992 469.34 325.032C469.34 324.072 469.054 323.285 468.48 322.672C467.907 322.045 467.174 321.732 466.28 321.732C465.36 321.732 464.607 322.039 464.02 322.652C463.447 323.265 463.16 324.059 463.16 325.032C463.16 325.992 463.447 326.779 464.02 327.392C464.607 328.005 465.36 328.312 466.28 328.312ZM481.497 324.492C481.497 324.745 481.477 325.092 481.437 325.532H474.297C474.31 326.412 474.577 327.105 475.097 327.612C475.617 328.105 476.317 328.352 477.197 328.352C478.423 328.352 479.237 327.899 479.637 326.992H481.377C481.217 327.845 480.75 328.539 479.977 329.072C479.203 329.605 478.277 329.872 477.197 329.872C475.783 329.872 474.657 329.439 473.817 328.572C472.99 327.692 472.577 326.505 472.577 325.012C472.577 323.545 472.99 322.372 473.817 321.492C474.643 320.612 475.743 320.172 477.117 320.172C478.423 320.172 479.477 320.572 480.277 321.372C481.09 322.172 481.497 323.212 481.497 324.492ZM474.297 324.192H479.777C479.777 323.379 479.537 322.739 479.057 322.272C478.59 321.805 477.937 321.572 477.097 321.572C476.27 321.572 475.603 321.812 475.097 322.292C474.603 322.772 474.337 323.405 474.297 324.192ZM483.746 329.632V320.412H485.486V322.512C485.66 321.779 486 321.225 486.506 320.852C487.013 320.465 487.573 320.272 488.186 320.272C488.546 320.272 488.826 320.299 489.026 320.352V321.952C488.826 321.912 488.54 321.892 488.166 321.892C487.3 321.892 486.633 322.239 486.166 322.932C485.713 323.625 485.486 324.512 485.486 325.592V329.632H483.746Z" fill="#BBBBBB"/>
<rect x="516.5" y="578.132" width="245" height="43" rx="5" fill="#0048FF"/>
<path d="M622.2 606.472C620.573 606.472 619.313 606.045 618.42 605.192C617.54 604.339 617.1 603.125 617.1 601.552H619.4C619.4 602.459 619.647 603.172 620.14 603.692C620.633 604.212 621.313 604.472 622.18 604.472C622.94 604.472 623.52 604.305 623.92 603.972C624.333 603.625 624.54 603.139 624.54 602.512C624.54 601.979 624.387 601.552 624.08 601.232C623.787 600.912 623.247 600.592 622.46 600.272L620.18 599.352C618.393 598.659 617.5 597.419 617.5 595.632C617.5 594.499 617.913 593.579 618.74 592.872C619.58 592.152 620.66 591.792 621.98 591.792C623.367 591.792 624.48 592.192 625.32 592.992C626.173 593.792 626.6 594.852 626.6 596.172H624.3C624.3 595.399 624.093 594.805 623.68 594.392C623.267 593.965 622.673 593.752 621.9 593.752C621.247 593.752 620.733 593.912 620.36 594.232C620 594.539 619.82 594.959 619.82 595.492C619.82 595.972 620 596.385 620.36 596.732C620.72 597.079 621.313 597.419 622.14 597.752L624.2 598.592C625.96 599.312 626.84 600.599 626.84 602.452C626.84 603.652 626.413 604.625 625.56 605.372C624.707 606.105 623.587 606.472 622.2 606.472ZM637.473 600.992C637.473 601.232 637.453 601.632 637.413 602.192H630.493C630.519 602.925 630.759 603.492 631.213 603.892C631.666 604.279 632.293 604.472 633.093 604.472C634.119 604.472 634.813 604.119 635.173 603.412H637.373C637.226 604.279 636.753 604.992 635.953 605.552C635.166 606.099 634.213 606.372 633.093 606.372C631.626 606.372 630.466 605.932 629.613 605.052C628.759 604.172 628.333 602.979 628.333 601.472C628.333 599.979 628.753 598.792 629.593 597.912C630.446 597.019 631.586 596.572 633.013 596.572C634.346 596.572 635.419 596.985 636.233 597.812C637.059 598.625 637.473 599.685 637.473 600.992ZM630.493 600.532H635.333C635.319 599.812 635.106 599.259 634.693 598.872C634.293 598.485 633.719 598.292 632.973 598.292C632.213 598.292 631.613 598.499 631.173 598.912C630.733 599.325 630.506 599.865 630.493 600.532ZM639.58 606.132V596.812H641.76V598.112C642.36 597.085 643.373 596.572 644.8 596.572C647.066 596.572 648.2 597.805 648.2 600.272V606.132H646.02V601.272C646.02 600.259 645.866 599.532 645.56 599.092C645.253 598.652 644.726 598.432 643.98 598.432C643.273 598.432 642.726 598.659 642.34 599.112C641.953 599.552 641.76 600.185 641.76 601.012V606.132H639.58ZM657.768 592.132H659.948V606.132H657.768V604.872C657.501 605.325 657.081 605.692 656.508 605.972C655.948 606.239 655.374 606.372 654.788 606.372C653.334 606.372 652.208 605.912 651.408 604.992C650.608 604.072 650.208 602.899 650.208 601.472C650.208 600.059 650.628 598.892 651.468 597.972C652.308 597.039 653.434 596.572 654.848 596.572C655.474 596.572 656.048 596.705 656.568 596.972C657.088 597.239 657.488 597.605 657.768 598.072V592.132ZM655.108 604.432C656.001 604.432 656.681 604.152 657.148 603.592C657.628 603.032 657.868 602.325 657.868 601.472C657.868 600.619 657.628 599.912 657.148 599.352C656.681 598.792 656.001 598.512 655.108 598.512C654.268 598.512 653.601 598.792 653.108 599.352C652.628 599.899 652.388 600.605 652.388 601.472C652.388 602.339 652.628 603.052 653.108 603.612C653.601 604.159 654.268 604.432 655.108 604.432Z" fill="white"/>
<rect x="339.5" y="363.632" width="599" height="199" rx="4.5" fill="white" stroke="#E4E4E4"/>
<path d="M359.706 394.632V380.632H361.526V386.852H368.046V380.632H369.866V394.632H368.046V388.492H361.526V394.632H359.706ZM376.785 394.872C375.358 394.872 374.238 394.419 373.425 393.512C372.625 392.605 372.225 391.445 372.225 390.032C372.225 388.632 372.638 387.472 373.465 386.552C374.305 385.632 375.425 385.172 376.825 385.172C377.545 385.172 378.192 385.339 378.765 385.672C379.338 386.005 379.772 386.459 380.065 387.032V385.412H381.785V394.632H380.065V393.012C379.772 393.572 379.325 394.025 378.725 394.372C378.125 394.705 377.478 394.872 376.785 394.872ZM377.025 393.312C377.998 393.312 378.758 392.999 379.305 392.372C379.865 391.732 380.145 390.952 380.145 390.032C380.145 389.099 379.865 388.319 379.305 387.692C378.758 387.052 377.998 386.732 377.025 386.732C376.092 386.732 375.345 387.045 374.785 387.672C374.225 388.285 373.945 389.072 373.945 390.032C373.945 390.992 374.225 391.779 374.785 392.392C375.345 393.005 376.092 393.312 377.025 393.312ZM387.401 394.632L383.341 385.412H385.201L388.101 392.312L391.021 385.412H392.881L388.821 394.632H387.401ZM402.239 389.492C402.239 389.745 402.219 390.092 402.179 390.532H395.039C395.052 391.412 395.319 392.105 395.839 392.612C396.359 393.105 397.059 393.352 397.939 393.352C399.165 393.352 399.979 392.899 400.379 391.992H402.119C401.959 392.845 401.492 393.539 400.719 394.072C399.945 394.605 399.019 394.872 397.939 394.872C396.525 394.872 395.399 394.439 394.559 393.572C393.732 392.692 393.319 391.505 393.319 390.012C393.319 388.545 393.732 387.372 394.559 386.492C395.385 385.612 396.485 385.172 397.859 385.172C399.165 385.172 400.219 385.572 401.019 386.372C401.832 387.172 402.239 388.212 402.239 389.492ZM395.039 389.192H400.519C400.519 388.379 400.279 387.739 399.799 387.272C399.332 386.805 398.679 386.572 397.839 386.572C397.012 386.572 396.345 386.812 395.839 387.292C395.345 387.772 395.079 388.405 395.039 389.192ZM413.367 394.872C411.94 394.872 410.82 394.419 410.007 393.512C409.207 392.605 408.807 391.445 408.807 390.032C408.807 388.632 409.22 387.472 410.047 386.552C410.887 385.632 412.007 385.172 413.407 385.172C414.127 385.172 414.774 385.339 415.347 385.672C415.92 386.005 416.354 386.459 416.647 387.032V385.412H418.367V394.632H416.647V393.012C416.354 393.572 415.907 394.025 415.307 394.372C414.707 394.705 414.06 394.872 413.367 394.872ZM413.607 393.312C414.58 393.312 415.34 392.999 415.887 392.372C416.447 391.732 416.727 390.952 416.727 390.032C416.727 389.099 416.447 388.319 415.887 387.692C415.34 387.052 414.58 386.732 413.607 386.732C412.674 386.732 411.927 387.045 411.367 387.672C410.807 388.285 410.527 389.072 410.527 390.032C410.527 390.992 410.807 391.779 411.367 392.392C411.927 393.005 412.674 393.312 413.607 393.312ZM421.363 394.632V385.412H423.103V387.112C423.357 386.512 423.757 386.039 424.303 385.692C424.863 385.345 425.537 385.172 426.323 385.172C428.617 385.172 429.763 386.432 429.763 388.952V394.632H428.023V389.712C428.023 388.672 427.837 387.905 427.463 387.412C427.103 386.919 426.517 386.672 425.703 386.672C424.863 386.672 424.217 386.945 423.763 387.492C423.323 388.039 423.103 388.792 423.103 389.752V394.632H421.363ZM439.272 385.412H441.012V394.812C441.012 396.265 440.592 397.372 439.752 398.132C439.005 398.799 437.999 399.132 436.732 399.132C435.399 399.132 434.359 398.812 433.612 398.172C432.932 397.599 432.585 396.805 432.572 395.792H434.332C434.399 397.045 435.192 397.672 436.712 397.672C438.419 397.672 439.272 396.679 439.272 394.692V392.972C438.659 394.239 437.592 394.872 436.072 394.872C434.912 394.872 434.039 394.519 433.452 393.812C432.865 393.092 432.572 392.125 432.572 390.912V385.412H434.312V390.552C434.312 391.445 434.485 392.132 434.832 392.612C435.192 393.079 435.799 393.312 436.652 393.312C437.492 393.312 438.139 393.012 438.592 392.412C439.045 391.799 439.272 391.045 439.272 390.152V385.412ZM447.88 393.172C448.36 393.172 448.746 393.139 449.04 393.072V394.612C448.64 394.705 448.126 394.752 447.5 394.752C447.22 394.752 446.973 394.739 446.76 394.712C446.56 394.685 446.32 394.612 446.04 394.492C445.76 394.372 445.526 394.205 445.34 393.992C445.153 393.765 444.993 393.452 444.86 393.052C444.726 392.639 444.66 392.145 444.66 391.572V386.872H443V385.412H444.66V382.492H446.4V385.412H448.72V386.872H446.4V391.192C446.4 392.005 446.52 392.539 446.76 392.792C447 393.045 447.373 393.172 447.88 393.172ZM456.129 385.172C458.422 385.172 459.569 386.432 459.569 388.952V394.632H457.829V389.712C457.829 388.672 457.642 387.905 457.269 387.412C456.909 386.919 456.322 386.672 455.509 386.672C454.669 386.672 454.022 386.945 453.569 387.492C453.129 388.039 452.909 388.792 452.909 389.752V394.632H451.169V380.632H452.909V387.112C453.162 386.512 453.562 386.039 454.109 385.692C454.669 385.345 455.342 385.172 456.129 385.172ZM463.357 383.832C462.943 383.832 462.603 383.699 462.337 383.432C462.07 383.165 461.937 382.832 461.937 382.432C461.937 382.032 462.07 381.699 462.337 381.432C462.603 381.152 462.943 381.012 463.357 381.012C463.757 381.012 464.09 381.152 464.357 381.432C464.623 381.699 464.757 382.032 464.757 382.432C464.757 382.832 464.623 383.165 464.357 383.432C464.09 383.699 463.757 383.832 463.357 383.832ZM462.477 394.632V385.412H464.217V394.632H462.477ZM467.223 394.632V385.412H468.963V387.112C469.216 386.512 469.616 386.039 470.163 385.692C470.723 385.345 471.396 385.172 472.183 385.172C474.476 385.172 475.623 386.432 475.623 388.952V394.632H473.883V389.712C473.883 388.672 473.696 387.905 473.323 387.412C472.963 386.919 472.376 386.672 471.563 386.672C470.723 386.672 470.076 386.945 469.623 387.492C469.183 388.039 468.963 388.792 468.963 389.752V394.632H467.223ZM485.631 385.412H487.351V394.392C487.351 396.152 486.818 397.445 485.751 398.272C484.978 398.845 483.918 399.132 482.571 399.132C481.225 399.132 480.138 398.832 479.311 398.232C478.431 397.619 477.971 396.805 477.931 395.792H479.751C479.831 396.352 480.105 396.805 480.571 397.152C481.051 397.499 481.718 397.672 482.571 397.672C484.611 397.672 485.631 396.619 485.631 394.512V393.012C485.351 393.585 484.905 394.039 484.291 394.372C483.678 394.705 483.031 394.872 482.351 394.872C480.965 394.872 479.858 394.412 479.031 393.492C478.205 392.572 477.791 391.419 477.791 390.032C477.791 388.645 478.218 387.492 479.071 386.572C479.938 385.639 481.045 385.172 482.391 385.172C483.098 385.172 483.738 385.339 484.311 385.672C484.898 386.005 485.338 386.459 485.631 387.032V385.412ZM482.591 393.312C483.538 393.312 484.291 392.999 484.851 392.372C485.425 391.745 485.711 390.965 485.711 390.032C485.711 389.099 485.425 388.319 484.851 387.692C484.291 387.052 483.538 386.732 482.591 386.732C481.685 386.732 480.945 387.045 480.371 387.672C479.798 388.285 479.511 389.072 479.511 390.032C479.511 390.979 479.798 391.765 480.371 392.392C480.945 393.005 481.685 393.312 482.591 393.312ZM499.266 393.172C499.746 393.172 500.133 393.139 500.426 393.072V394.612C500.026 394.705 499.513 394.752 498.886 394.752C498.606 394.752 498.36 394.739 498.146 394.712C497.946 394.685 497.706 394.612 497.426 394.492C497.146 394.372 496.913 394.205 496.726 393.992C496.54 393.765 496.38 393.452 496.246 393.052C496.113 392.639 496.046 392.145 496.046 391.572V386.872H494.386V385.412H496.046V382.492H497.786V385.412H500.106V386.872H497.786V391.192C497.786 392.005 497.906 392.539 498.146 392.792C498.386 393.045 498.76 393.172 499.266 393.172ZM506.478 394.872C505.011 394.872 503.845 394.412 502.978 393.492C502.111 392.559 501.678 391.399 501.678 390.012C501.678 388.625 502.111 387.472 502.978 386.552C503.845 385.632 505.011 385.172 506.478 385.172C507.931 385.172 509.091 385.639 509.958 386.572C510.838 387.492 511.278 388.639 511.278 390.012C511.278 391.399 510.838 392.559 509.958 393.492C509.091 394.412 507.931 394.872 506.478 394.872ZM504.218 392.392C504.778 393.005 505.531 393.312 506.478 393.312C507.425 393.312 508.171 393.005 508.718 392.392C509.265 391.765 509.538 390.972 509.538 390.012C509.538 389.065 509.265 388.285 508.718 387.672C508.171 387.045 507.425 386.732 506.478 386.732C505.531 386.732 504.778 387.045 504.218 387.672C503.671 388.285 503.398 389.072 503.398 390.032C503.398 390.979 503.671 391.765 504.218 392.392ZM521.69 394.872C520.53 394.872 519.597 394.585 518.89 394.012C518.197 393.425 517.85 392.712 517.85 391.872H519.57C519.57 392.339 519.77 392.725 520.17 393.032C520.57 393.325 521.103 393.472 521.77 393.472C522.29 393.472 522.703 393.352 523.01 393.112C523.317 392.872 523.47 392.545 523.47 392.132C523.47 391.479 523.17 391.079 522.57 390.932L520.11 390.292C518.79 389.932 518.13 389.105 518.13 387.812C518.13 387.052 518.45 386.425 519.09 385.932C519.73 385.425 520.563 385.172 521.59 385.172C522.71 385.172 523.577 385.432 524.19 385.952C524.817 386.459 525.13 387.125 525.13 387.952H523.41C523.41 387.512 523.243 387.165 522.91 386.912C522.577 386.645 522.11 386.512 521.51 386.512C521.03 386.512 520.63 386.625 520.31 386.852C520.003 387.065 519.85 387.359 519.85 387.732C519.85 388.359 520.19 388.752 520.87 388.912L523.17 389.552C523.823 389.725 524.33 390.032 524.69 390.472C525.05 390.912 525.23 391.412 525.23 391.972C525.23 392.852 524.917 393.559 524.29 394.092C523.663 394.612 522.797 394.872 521.69 394.872ZM531.414 394.872C529.987 394.872 528.867 394.419 528.054 393.512C527.254 392.605 526.854 391.445 526.854 390.032C526.854 388.632 527.267 387.472 528.094 386.552C528.934 385.632 530.054 385.172 531.454 385.172C532.174 385.172 532.821 385.339 533.394 385.672C533.967 386.005 534.401 386.459 534.694 387.032V385.412H536.414V394.632H534.694V393.012C534.401 393.572 533.954 394.025 533.354 394.372C532.754 394.705 532.107 394.872 531.414 394.872ZM531.654 393.312C532.627 393.312 533.387 392.999 533.934 392.372C534.494 391.732 534.774 390.952 534.774 390.032C534.774 389.099 534.494 388.319 533.934 387.692C533.387 387.052 532.627 386.732 531.654 386.732C530.721 386.732 529.974 387.045 529.414 387.672C528.854 388.285 528.574 389.072 528.574 390.032C528.574 390.992 528.854 391.779 529.414 392.392C529.974 393.005 530.721 393.312 531.654 393.312ZM546.01 385.412H547.75V394.812C547.75 396.265 547.33 397.372 546.49 398.132C545.744 398.799 544.737 399.132 543.47 399.132C542.137 399.132 541.097 398.812 540.35 398.172C539.67 397.599 539.324 396.805 539.31 395.792H541.07C541.137 397.045 541.93 397.672 543.45 397.672C545.157 397.672 546.01 396.679 546.01 394.692V392.972C545.397 394.239 544.33 394.872 542.81 394.872C541.65 394.872 540.777 394.519 540.19 393.812C539.604 393.092 539.31 392.125 539.31 390.912V385.412H541.05V390.552C541.05 391.445 541.224 392.132 541.57 392.612C541.93 393.079 542.537 393.312 543.39 393.312C544.23 393.312 544.877 393.012 545.33 392.412C545.784 391.799 546.01 391.045 546.01 390.152V385.412ZM552.638 390.412V390.112C552.638 389.445 552.725 388.912 552.898 388.512C553.071 388.112 553.418 387.719 553.938 387.332L554.958 386.632C555.851 385.992 556.298 385.159 556.298 384.132C556.298 383.465 556.085 382.925 555.658 382.512C555.245 382.099 554.678 381.892 553.958 381.892C553.131 381.892 552.471 382.139 551.978 382.632C551.498 383.125 551.258 383.832 551.258 384.752H549.438C549.438 383.352 549.845 382.259 550.658 381.472C551.485 380.685 552.611 380.292 554.038 380.292C555.345 380.292 556.365 380.639 557.098 381.332C557.831 382.025 558.198 382.939 558.198 384.072C558.198 384.872 558.018 385.545 557.658 386.092C557.311 386.639 556.818 387.165 556.178 387.672L555.318 388.292C554.945 388.572 554.691 388.839 554.558 389.092C554.438 389.332 554.378 389.665 554.378 390.092V390.412H552.638ZM554.538 394.352C554.258 394.632 553.911 394.772 553.498 394.772C553.085 394.772 552.738 394.632 552.458 394.352C552.178 394.059 552.038 393.712 552.038 393.312C552.038 392.912 552.178 392.572 552.458 392.292C552.738 391.999 553.085 391.852 553.498 391.852C553.911 391.852 554.258 391.999 554.538 392.292C554.818 392.572 554.958 392.912 554.958 393.312C554.958 393.712 554.818 394.059 554.538 394.352Z" fill="#BBBBBB"/>
<circle cx="1136.71" cy="535.924" r="100" transform="rotate(-42.5563 1136.71 535.924)" fill="#407BFF" fill-opacity="0.15"/>
<circle cx="156.226" cy="164.658" r="100" transform="rotate(136.408 156.226 164.658)" fill="#D5E4FF"/>
<circle cx="1023.75" cy="433.967" r="25" transform="rotate(-42.5563 1023.75 433.967)" fill="#407BFF" fill-opacity="0.1"/>
<circle cx="247.737" cy="257.076" r="25" transform="rotate(136.408 247.737 257.076)" fill="#407BFF" fill-opacity="0.1"/>
</svg>
