<svg width="350" height="350" viewBox="0 0 350 350" fill="none" xmlns="http://www.w3.org/2000/svg">
<mask id="path-1-inside-1_7_300" fill="white">
<path d="M0 175C0 78.3502 78.3502 0 175 0H350V350H175C78.3502 350 0 271.65 0 175V175Z"/>
</mask>
<path d="M0 175C0 78.3502 78.3502 0 175 0H350V350H175C78.3502 350 0 271.65 0 175V175Z" fill="white"/>
<path d="M0 0H350H0ZM350 350H0H350ZM0 350V0V350ZM353 0V350H347V0H353Z" fill="#C4D4FF" mask="url(#path-1-inside-1_7_300)"/>
<path d="M92.6896 167.425L91.7296 164.025H81.8096L80.8496 167.425H74.0096L83.4896 139.425H90.0096L99.5296 167.425H92.6896ZM83.2496 158.945H90.2896L86.7696 146.505L83.2496 158.945ZM114.858 147.625C117.498 147.625 119.631 148.558 121.258 150.425C122.911 152.292 123.738 154.745 123.738 157.785C123.738 160.798 122.898 163.252 121.218 165.145C119.538 167.012 117.364 167.945 114.698 167.945C113.311 167.945 112.071 167.638 110.978 167.025C109.884 166.412 109.084 165.638 108.578 164.705V167.425H102.458V139.385H108.578V150.905C109.084 149.945 109.911 149.158 111.058 148.545C112.204 147.932 113.471 147.625 114.858 147.625ZM112.938 162.865C114.271 162.865 115.364 162.398 116.218 161.465C117.071 160.505 117.498 159.278 117.498 157.785C117.498 156.292 117.071 155.078 116.218 154.145C115.364 153.212 114.271 152.745 112.938 152.745C111.551 152.745 110.431 153.212 109.578 154.145C108.724 155.078 108.298 156.292 108.298 157.785C108.298 159.305 108.724 160.532 109.578 161.465C110.458 162.398 111.578 162.865 112.938 162.865ZM144.496 165.145C142.576 167.065 139.989 168.025 136.736 168.025C133.483 168.025 130.883 167.065 128.936 165.145C126.989 163.225 126.016 160.772 126.016 157.785C126.016 154.798 126.989 152.358 128.936 150.465C130.883 148.545 133.483 147.585 136.736 147.585C139.989 147.585 142.576 148.545 144.496 150.465C146.443 152.358 147.416 154.798 147.416 157.785C147.416 160.772 146.443 163.225 144.496 165.145ZM136.736 162.825C138.149 162.825 139.269 162.358 140.096 161.425C140.923 160.492 141.336 159.278 141.336 157.785C141.336 156.292 140.923 155.078 140.096 154.145C139.269 153.212 138.149 152.745 136.736 152.745C135.296 152.745 134.163 153.212 133.336 154.145C132.536 155.078 132.136 156.292 132.136 157.785C132.136 159.278 132.536 160.492 133.336 161.425C134.163 162.358 135.296 162.825 136.736 162.825ZM157.854 167.945C155.561 167.945 153.801 167.265 152.574 165.905C151.348 164.518 150.734 162.572 150.734 160.065V148.145H156.934V158.705C156.934 161.425 158.001 162.785 160.134 162.785C162.614 162.785 163.854 161.358 163.854 158.505V148.145H169.934V167.425H163.854V164.665C162.708 166.852 160.708 167.945 157.854 167.945ZM185.117 162.665C185.97 162.665 186.677 162.625 187.237 162.545V167.425C186.063 167.638 184.703 167.745 183.157 167.745C182.463 167.745 181.85 167.705 181.317 167.625C180.783 167.545 180.183 167.372 179.517 167.105C178.85 166.812 178.303 166.425 177.877 165.945C177.45 165.465 177.077 164.772 176.757 163.865C176.463 162.958 176.317 161.892 176.317 160.665V152.985H173.277V148.145H176.317V142.425H182.437V148.145H186.797V152.985H182.437V159.385C182.437 160.692 182.663 161.572 183.117 162.025C183.57 162.452 184.237 162.665 185.117 162.665ZM89.7296 214.225C85.1963 214.225 81.5563 212.852 78.8096 210.105C76.063 207.332 74.6896 203.772 74.6896 199.425C74.6896 195.078 76.063 191.532 78.8096 188.785C81.5563 186.012 85.1963 184.625 89.7296 184.625C93.783 184.625 97.0763 185.625 99.6096 187.625C102.17 189.598 103.636 192.252 104.01 195.585H97.1296C96.7563 193.985 95.9296 192.732 94.6496 191.825C93.3696 190.892 91.743 190.425 89.7696 190.425C87.1563 190.425 85.1163 191.238 83.6496 192.865C82.183 194.465 81.4496 196.652 81.4496 199.425C81.4496 202.198 82.183 204.398 83.6496 206.025C85.1163 207.625 87.1563 208.425 89.7696 208.425C91.743 208.425 93.3696 207.972 94.6496 207.065C95.9296 206.132 96.7563 204.865 97.1296 203.265H104.01C103.636 206.598 102.17 209.265 99.6096 211.265C97.0763 213.238 93.783 214.225 89.7296 214.225ZM124.613 211.145C122.693 213.065 120.106 214.025 116.853 214.025C113.6 214.025 111 213.065 109.053 211.145C107.106 209.225 106.133 206.772 106.133 203.785C106.133 200.798 107.106 198.358 109.053 196.465C111 194.545 113.6 193.585 116.853 193.585C120.106 193.585 122.693 194.545 124.613 196.465C126.56 198.358 127.533 200.798 127.533 203.785C127.533 206.772 126.56 209.225 124.613 211.145ZM116.853 208.825C118.266 208.825 119.386 208.358 120.213 207.425C121.04 206.492 121.453 205.278 121.453 203.785C121.453 202.292 121.04 201.078 120.213 200.145C119.386 199.212 118.266 198.745 116.853 198.745C115.413 198.745 114.28 199.212 113.453 200.145C112.653 201.078 112.253 202.292 112.253 203.785C112.253 205.278 112.653 206.492 113.453 207.425C114.28 208.358 115.413 208.825 116.853 208.825ZM131.051 213.425V194.145H137.171V196.945C137.598 195.958 138.291 195.158 139.251 194.545C140.238 193.932 141.385 193.625 142.691 193.625C145.731 193.625 147.745 194.812 148.731 197.185C149.265 196.118 150.078 195.265 151.171 194.625C152.265 193.958 153.505 193.625 154.891 193.625C159.451 193.625 161.731 196.238 161.731 201.465V213.425H155.571V202.585C155.571 200.052 154.611 198.785 152.691 198.785C150.531 198.785 149.451 200.358 149.451 203.505V213.425H143.291V202.545C143.291 200.038 142.345 198.785 140.451 198.785C139.385 198.785 138.571 199.145 138.011 199.865C137.451 200.558 137.171 201.772 137.171 203.505V213.425H131.051ZM178.959 193.625C181.599 193.625 183.733 194.558 185.359 196.425C187.013 198.292 187.839 200.745 187.839 203.785C187.839 206.798 186.999 209.252 185.319 211.145C183.639 213.012 181.466 213.945 178.799 213.945C177.413 213.945 176.173 213.638 175.079 213.025C173.986 212.412 173.186 211.638 172.679 210.705V221.425H166.559V194.145H172.679V196.905C173.186 195.945 174.013 195.158 175.159 194.545C176.306 193.932 177.573 193.625 178.959 193.625ZM177.039 208.865C178.373 208.865 179.466 208.398 180.319 207.465C181.173 206.505 181.599 205.278 181.599 203.785C181.599 202.292 181.173 201.078 180.319 200.145C179.466 199.212 178.373 198.745 177.039 198.745C175.653 198.745 174.533 199.212 173.679 200.145C172.826 201.078 172.399 202.292 172.399 203.785C172.399 205.305 172.826 206.532 173.679 207.465C174.559 208.398 175.679 208.865 177.039 208.865ZM199.317 213.945C196.517 213.945 194.304 212.998 192.677 211.105C191.051 209.212 190.237 206.772 190.237 203.785C190.237 200.852 191.077 198.425 192.757 196.505C194.437 194.585 196.651 193.625 199.397 193.625C200.757 193.625 201.971 193.918 203.037 194.505C204.104 195.092 204.904 195.892 205.437 196.905V194.145H211.517V213.425H205.437V210.705C204.904 211.665 204.077 212.452 202.957 213.065C201.864 213.652 200.651 213.945 199.317 213.945ZM201.077 208.865C202.544 208.865 203.677 208.385 204.477 207.425C205.277 206.465 205.677 205.252 205.677 203.785C205.677 202.345 205.277 201.145 204.477 200.185C203.677 199.225 202.544 198.745 201.077 198.745C199.691 198.745 198.571 199.212 197.717 200.145C196.891 201.078 196.477 202.292 196.477 203.785C196.477 205.278 196.891 206.505 197.717 207.465C198.571 208.398 199.691 208.865 201.077 208.865ZM216.598 213.425V194.145H222.718V196.945C223.865 194.732 225.945 193.625 228.958 193.625C233.652 193.625 235.998 196.252 235.998 201.505V213.425H229.838V203.505C229.838 201.852 229.572 200.652 229.038 199.905C228.532 199.158 227.665 198.785 226.438 198.785C223.958 198.785 222.718 200.305 222.718 203.345V213.425H216.598ZM253.935 194.145H260.055V212.825C260.055 215.812 259.135 218.132 257.295 219.785C255.562 221.278 253.202 222.025 250.215 222.025C247.095 222.025 244.722 221.358 243.095 220.025C241.522 218.692 240.722 216.998 240.695 214.945H246.855C246.989 216.678 248.109 217.545 250.215 217.545C252.695 217.545 253.935 216.105 253.935 213.225V210.225C252.815 212.358 250.775 213.425 247.815 213.425C245.442 213.425 243.655 212.705 242.455 211.265C241.282 209.825 240.695 207.852 240.695 205.345V194.145H246.815V204.425C246.815 207.198 247.949 208.585 250.215 208.585C251.415 208.585 252.335 208.158 252.975 207.305C253.615 206.425 253.935 205.225 253.935 203.705V194.145Z" fill="#0048FF"/>
</svg>
