<svg width="657" height="451" viewBox="0 0 657 451" fill="none" xmlns="http://www.w3.org/2000/svg">
<path d="M264.288 180.636C287.05 167.238 294.977 136.961 274.443 120.348C266.235 113.707 257.217 108.018 247.552 103.43C223.318 91.9259 196.104 87.8599 169.352 91.7463C142.601 95.6327 117.512 107.297 97.2597 125.264C77.0073 143.231 62.5005 166.694 55.5738 192.686C48.6471 218.678 49.6116 246.031 58.3454 271.287C67.0792 296.543 83.1899 318.566 104.64 334.573C126.091 350.58 151.917 359.851 178.854 361.214C190.031 361.779 201.19 360.973 212.089 358.854C237.653 353.885 245.264 324.035 232.054 301.593L220.46 281.896C213.653 270.331 198.275 267.361 184.872 266.683V266.683C176.747 266.272 168.956 263.475 162.486 258.647C156.016 253.818 151.156 247.175 148.522 239.557C145.887 231.939 145.596 223.688 147.686 215.848C149.775 208.007 154.151 200.93 160.26 195.51C166.369 190.091 173.937 186.572 182.006 185.4C190.076 184.228 198.284 185.454 205.594 188.924V188.924C217.584 194.616 232.346 199.438 243.784 192.705L264.288 180.636Z" fill="url(#paint0_linear_1_6)" fill-opacity="0.15"/>
<path d="M461.469 364.925L453.18 363.754V323.118L461.469 323.999V364.925Z" fill="#999999" stroke="#263238" stroke-linecap="round" stroke-linejoin="round"/>
<path d="M647.803 343.768L266.826 303.36V72.3074L647.803 23.0405V343.768Z" fill="white" stroke="#263238" stroke-linecap="round" stroke-linejoin="round"/>
<path d="M651.056 22.626L263.552 72.7529C260.879 73.1052 258.703 71.7168 258.703 69.5514V66.0182C258.703 63.946 260.879 61.8738 263.552 61.5008L651.056 6.90825C653.729 6.52489 655.905 8.63855 655.905 11.6225V16.5959C655.931 18.0096 655.459 19.3874 654.573 20.4893C653.687 21.5912 652.442 22.3473 651.056 22.626V22.626Z" fill="#999999" stroke="#263238" stroke-linecap="round" stroke-linejoin="round"/>
<path d="M640.726 12.5861L647.502 11.6122" stroke="white" stroke-linecap="round" stroke-linejoin="round"/>
<path d="M622.522 15.1971L632.883 13.7155" stroke="white" stroke-linecap="round" stroke-linejoin="round"/>
<path d="M298.893 61.335L616.409 16.0467" stroke="white" stroke-linecap="round" stroke-linejoin="round"/>
<path d="M267.126 65.8732L290.698 62.5058" stroke="white" stroke-linecap="round" stroke-linejoin="round"/>
<path d="M494.708 309.514L429.909 303.681V212.161L494.759 212.016L494.708 309.514Z" fill="#7E8AF5"/>
<path opacity="0.8" d="M494.708 309.514L429.909 303.681V212.161L494.759 212.016L494.708 309.514Z" fill="white"/>
<path d="M559.558 315.347L494.708 309.514V212.058L559.558 211.923V315.347Z" fill="#7E8AF5"/>
<path opacity="0.6" d="M559.558 315.347L494.708 309.514V212.058L559.558 211.923V315.347Z" fill="white"/>
<path d="M624.397 321.181L559.558 315.347V211.882L624.397 211.737V321.181Z" fill="#7E8AF5"/>
<path opacity="0.4" d="M624.397 321.181L559.558 315.347V211.882L624.397 211.737V321.181Z" fill="white"/>
<path d="M624.397 211.736L429.909 212.161" stroke="#7F7F7F" stroke-linecap="round" stroke-linejoin="round"/>
<path d="M429.909 225.237L624.449 227.371" stroke="#7F7F7F" stroke-linecap="round" stroke-linejoin="round"/>
<path d="M624.397 243.006L429.909 238.313" stroke="#7F7F7F" stroke-linecap="round" stroke-linejoin="round"/>
<path d="M429.909 251.43L624.449 258.683" stroke="#7F7F7F" stroke-linecap="round" stroke-linejoin="round"/>
<path d="M624.397 274.276L429.909 264.454" stroke="#7F7F7F" stroke-linecap="round" stroke-linejoin="round"/>
<path d="M429.909 277.529L624.449 289.911" stroke="#7F7F7F" stroke-linecap="round" stroke-linejoin="round"/>
<path d="M624.397 305.546L429.909 290.605" stroke="#7F7F7F" stroke-linecap="round" stroke-linejoin="round"/>
<path d="M429.909 303.681L624.449 321.181" stroke="#7F7F7F" stroke-linecap="round" stroke-linejoin="round"/>
<path d="M446.073 305.142V212.12" stroke="#7F7F7F" stroke-linecap="round" stroke-linejoin="round"/>
<path d="M429.909 212.161V303.681" stroke="#7F7F7F" stroke-linecap="round" stroke-linejoin="round"/>
<path d="M478.493 308.053V212.058" stroke="#7F7F7F" stroke-linecap="round" stroke-linejoin="round"/>
<path d="M462.288 212.058V306.561" stroke="#7F7F7F" stroke-linecap="round" stroke-linejoin="round"/>
<path d="M510.923 310.975V211.985" stroke="#7F7F7F" stroke-linecap="round" stroke-linejoin="round"/>
<path d="M494.708 212.058V309.555" stroke="#7F7F7F" stroke-linecap="round" stroke-linejoin="round"/>
<path d="M543.343 313.886V211.913" stroke="#7F7F7F" stroke-linecap="round" stroke-linejoin="round"/>
<path d="M527.127 211.944V312.446" stroke="#7F7F7F" stroke-linecap="round" stroke-linejoin="round"/>
<path d="M575.762 316.808V211.84" stroke="#7F7F7F" stroke-linecap="round" stroke-linejoin="round"/>
<path d="M559.558 211.882V315.347" stroke="#7F7F7F" stroke-linecap="round" stroke-linejoin="round"/>
<path d="M608.193 319.72V211.768" stroke="#7F7F7F" stroke-linecap="round" stroke-linejoin="round"/>
<path d="M591.978 211.809V318.269" stroke="#7F7F7F" stroke-linecap="round" stroke-linejoin="round"/>
<path d="M624.397 211.737V321.181" stroke="#7F7F7F" stroke-linecap="round" stroke-linejoin="round"/>
<path d="M429.909 212.161V303.681L624.449 321.181V211.736L429.909 212.161Z" stroke="#263238" stroke-linecap="round" stroke-linejoin="round"/>
<path d="M437.97 304.012L433.101 303.577V277.333L437.97 277.643V304.012Z" fill="#263238"/>
<path d="M442.83 304.458L437.97 304.012V264.474L442.83 264.723V304.458Z" fill="#7E8AF5"/>
<path d="M454.175 305.473L449.316 305.038V258.413L454.175 258.62V305.473Z" fill="#263238"/>
<path d="M459.045 305.908L454.175 305.473V251.896L459.045 252.072V305.908Z" fill="#7E8AF5"/>
<path d="M470.39 306.924L465.531 306.489V265.852L470.39 266.101V306.924Z" fill="#263238"/>
<path d="M475.249 307.38L470.39 306.944V259.283L475.249 259.491V307.38Z" fill="#7E8AF5"/>
<path d="M486.605 308.416L481.736 307.981V280.441L486.605 280.752V308.416Z" fill="#263238" stroke="#263238" stroke-linecap="round" stroke-linejoin="round"/>
<path d="M491.465 308.809L486.605 308.374V275.219L491.465 275.499V308.809Z" fill="#7E8AF5" stroke="#7E8AF5" stroke-linecap="round" stroke-linejoin="round"/>
<path d="M502.81 309.825L497.951 309.39V262.216L502.81 262.433V309.825Z" fill="#263238"/>
<path d="M507.68 310.26L502.81 309.825V271.365L507.68 271.624V310.26Z" fill="#7E8AF5"/>
<path d="M519.015 311.275L514.155 310.84V269.935L519.015 270.183V311.275Z" fill="#263238"/>
<path d="M523.884 311.711L519.025 311.275V263.159L523.884 263.376V311.711Z" fill="#7E8AF5"/>
<path d="M535.24 312.726L530.37 312.291V261.149L535.24 261.356V312.726Z" fill="#263238"/>
<path d="M540.1 313.161L535.24 312.726V265.179L540.1 265.407V313.161Z" fill="#7E8AF5"/>
<path d="M551.445 314.177L546.586 313.741V250.746L551.445 250.912V314.177Z" fill="#263238"/>
<path d="M556.315 314.632L551.445 314.187V243.421L556.315 243.555V314.632Z" fill="#7E8AF5"/>
<path d="M567.712 315.669L562.852 315.233V255.906L567.712 256.082V315.669Z" fill="#263238"/>
<path d="M572.519 252.621V316.073L567.712 315.669V252.466L572.519 252.621Z" fill="#7E8AF5"/>
<path d="M583.875 317.088L579.005 316.653V248.477L583.875 248.622V317.088Z" fill="#263238"/>
<path d="M588.734 317.523L583.875 317.088V250.031L588.734 250.176V317.523Z" fill="#7E8AF5"/>
<path d="M600.08 318.539L595.22 318.103V238.997L600.08 239.1V318.539Z" fill="#263238"/>
<path d="M604.95 318.974L600.08 318.539V234.738L604.95 234.821V318.974Z" fill="#7E8AF5"/>
<path d="M616.295 319.989L611.425 319.554V226.77L616.295 226.822V319.989Z" fill="#263238"/>
<path d="M621.154 320.424L616.295 319.989V222.895H621.154V320.424Z" fill="#7E8AF5"/>
<path d="M496.086 261.117L481.984 260.496C481.213 260.5 480.467 260.217 479.892 259.702C479.318 259.187 478.956 258.476 478.876 257.709V248.715C478.908 248.342 479.015 247.979 479.189 247.648C479.364 247.316 479.603 247.023 479.893 246.786C480.183 246.548 480.517 246.371 480.876 246.265C481.235 246.158 481.612 246.125 481.984 246.166L496.086 246.591C496.861 246.573 497.615 246.851 498.192 247.369C498.77 247.886 499.128 248.605 499.194 249.378V258.558C499.166 258.933 499.062 259.299 498.889 259.633C498.716 259.967 498.477 260.262 498.186 260.501C497.896 260.741 497.56 260.918 497.199 261.024C496.838 261.13 496.459 261.162 496.086 261.117V261.117Z" fill="white" stroke="#263238" stroke-linecap="round" stroke-linejoin="round"/>
<path d="M482.937 257.056C482.46 256.989 482.024 256.746 481.717 256.373C481.41 256.001 481.254 255.528 481.28 255.046V254.538H482.73V255.16C482.73 255.667 483.031 255.895 483.518 255.916C484.005 255.937 484.305 255.73 484.305 255.201C484.305 254.673 484.025 254.165 483 253.45C481.756 252.57 481.321 251.896 481.321 250.995C481.304 250.766 481.333 250.537 481.405 250.32C481.477 250.103 481.592 249.903 481.742 249.73C481.893 249.558 482.076 249.417 482.281 249.315C482.486 249.214 482.709 249.154 482.937 249.14V248.425H484.181V249.14C484.656 249.205 485.089 249.447 485.393 249.818C485.697 250.189 485.848 250.661 485.818 251.14V251.43H484.378V251.109C484.389 251.006 484.378 250.901 484.343 250.803C484.309 250.705 484.252 250.617 484.179 250.544C484.105 250.471 484.015 250.416 483.917 250.383C483.818 250.349 483.714 250.339 483.611 250.352C483.124 250.352 482.855 250.549 482.855 251.026C482.855 251.502 483.134 251.989 484.16 252.725C485.403 253.626 485.839 254.289 485.839 255.243C485.858 255.477 485.831 255.714 485.758 255.938C485.684 256.162 485.567 256.368 485.413 256.546C485.258 256.724 485.069 256.869 484.858 256.972C484.646 257.076 484.416 257.136 484.181 257.149V257.978H482.937V257.056Z" fill="#263238"/>
<path d="M494.386 254.258V248.819L491.009 248.705V254.124L488.595 254.041C490.242 255.895 491.061 256.828 492.739 258.693L496.832 254.341L494.386 254.258Z" fill="#999999" stroke="#263238" stroke-linecap="round" stroke-linejoin="round"/>
<path d="M586.061 240.033L571.95 239.711C571.153 239.713 570.387 239.408 569.808 238.86C569.23 238.313 568.884 237.564 568.841 236.769V226.978C568.876 226.188 569.223 225.444 569.806 224.91C570.389 224.376 571.16 224.095 571.95 224.128L586.061 224.253C586.859 224.252 587.627 224.558 588.206 225.107C588.785 225.657 589.13 226.408 589.17 227.206V237.152C589.159 237.547 589.07 237.935 588.907 238.295C588.744 238.655 588.511 238.978 588.222 239.247C587.932 239.515 587.592 239.723 587.221 239.858C586.85 239.993 586.456 240.052 586.061 240.033V240.033Z" fill="white" stroke="#263238" stroke-linecap="round" stroke-linejoin="round"/>
<path d="M572.892 235.94C572.399 235.854 571.956 235.585 571.651 235.188C571.346 234.791 571.201 234.294 571.245 233.795V233.205H572.685V233.888C572.674 233.996 572.687 234.105 572.723 234.207C572.759 234.309 572.817 234.401 572.894 234.478C572.97 234.554 573.063 234.613 573.165 234.649C573.267 234.685 573.375 234.698 573.483 234.686C573.591 234.702 573.701 234.693 573.805 234.658C573.909 234.624 574.003 234.565 574.079 234.487C574.156 234.41 574.213 234.315 574.246 234.211C574.28 234.107 574.288 233.996 574.27 233.888C574.27 233.246 573.991 232.78 572.965 232.023C571.722 231.091 571.286 230.366 571.286 229.392C571.236 228.906 571.374 228.419 571.674 228.033C571.973 227.647 572.409 227.392 572.892 227.32V226.563H574.146V227.351C574.638 227.43 575.081 227.694 575.385 228.088C575.689 228.483 575.832 228.979 575.783 229.475V229.723H574.343V229.371C574.359 229.265 574.351 229.156 574.319 229.054C574.287 228.951 574.232 228.857 574.158 228.779C574.084 228.701 573.993 228.641 573.892 228.603C573.791 228.566 573.683 228.552 573.576 228.563C573.472 228.549 573.367 228.56 573.267 228.594C573.168 228.627 573.078 228.683 573.004 228.757C572.93 228.832 572.874 228.922 572.84 229.021C572.806 229.12 572.796 229.226 572.81 229.33C572.81 229.92 573.089 230.366 574.115 231.143C575.369 232.075 575.804 232.801 575.804 233.826C575.846 234.318 575.697 234.808 575.388 235.193C575.08 235.579 574.635 235.831 574.146 235.899V236.79H572.892V235.94Z" fill="#263238"/>
<path d="M580.974 231.547V237.432L584.352 237.505V231.599H586.766L582.621 226.646L578.529 231.474L580.974 231.547Z" fill="#999999" stroke="#263238" stroke-linecap="round" stroke-linejoin="round"/>
<path d="M524.993 159.144C529.322 160.073 533.747 160.48 538.172 160.356C563.091 159.682 585.719 140.97 585.833 116.529C585.906 93.1021 562.334 75.2189 538.172 78.6795V119.523C533.807 132.744 529.414 145.951 524.993 159.144Z" fill="#7E8AF5" stroke="#263238" stroke-linecap="round" stroke-linejoin="round"/>
<path d="M538.172 119.523V78.6795C514.912 81.0625 490.169 99.3084 490.511 122.507C490.801 140.007 506.384 155.88 524.952 159.144C529.407 145.944 533.814 132.737 538.172 119.523Z" fill="#999999" stroke="#263238" stroke-linecap="round" stroke-linejoin="round"/>
<path d="M520.89 102.852C520.86 102.484 520.753 102.127 520.576 101.804C520.4 101.48 520.157 101.198 519.864 100.974C519.571 100.75 519.234 100.591 518.875 100.505C518.517 100.42 518.144 100.411 517.782 100.479C517.003 100.493 516.257 100.792 515.684 101.319C515.111 101.846 514.752 102.564 514.673 103.339V104.976C514.705 105.343 514.813 105.7 514.99 106.023C515.167 106.346 515.41 106.629 515.702 106.853C515.994 107.077 516.33 107.238 516.689 107.325C517.047 107.412 517.419 107.424 517.782 107.359C518.56 107.345 519.306 107.047 519.879 106.519C520.452 105.992 520.811 105.274 520.89 104.499" stroke="#263238" stroke-linecap="round" stroke-linejoin="round"/>
<path d="M512.239 134.35V139.644C512.261 139.89 512.334 140.129 512.452 140.346C512.57 140.563 512.73 140.754 512.924 140.907C513.118 141.06 513.341 141.172 513.579 141.236C513.817 141.301 514.066 141.316 514.311 141.281V141.281C514.821 141.285 515.315 141.099 515.698 140.761C516.08 140.422 516.324 139.955 516.383 139.447V126.113C516.407 125.767 516.556 125.442 516.802 125.198C517.048 124.954 517.374 124.808 517.72 124.786C517.89 124.751 518.066 124.751 518.237 124.789C518.407 124.826 518.567 124.899 518.707 125.002C518.847 125.106 518.964 125.239 519.049 125.391C519.134 125.543 519.186 125.711 519.201 125.885V139.354C519.223 139.601 519.294 139.841 519.412 140.059C519.529 140.277 519.689 140.469 519.883 140.623C520.077 140.777 520.3 140.89 520.539 140.956C520.778 141.021 521.028 141.036 521.273 141.001C521.786 141.005 522.281 140.818 522.664 140.477C523.046 140.137 523.289 139.666 523.346 139.157V126.227" stroke="#263238" stroke-linecap="round" stroke-linejoin="round"/>
<path d="M512.239 130.879V132.433" stroke="#263238" stroke-linecap="round" stroke-linejoin="round"/>
<path d="M523.325 124.341V113.835C523.343 113.669 523.422 113.516 523.546 113.405C523.671 113.294 523.832 113.233 523.998 113.234V113.234C524.076 113.221 524.156 113.224 524.233 113.243C524.31 113.263 524.382 113.298 524.444 113.347C524.507 113.395 524.558 113.456 524.596 113.526C524.633 113.596 524.655 113.673 524.662 113.752V119.968C524.68 120.347 524.847 120.703 525.127 120.959C525.406 121.215 525.775 121.35 526.154 121.336C526.593 121.368 527.028 121.228 527.366 120.946C527.704 120.664 527.92 120.261 527.967 119.823V112.332C527.967 110.364 526.091 108.903 523.77 109.069L511.793 109.939C509.472 110.115 507.649 111.814 507.649 113.752V121.005C507.67 121.38 507.839 121.732 508.118 121.984C508.397 122.237 508.765 122.368 509.141 122.351C509.577 122.387 510.011 122.251 510.349 121.972C510.687 121.694 510.904 121.295 510.954 120.859V114.643C510.972 114.476 511.05 114.322 511.174 114.209C511.298 114.096 511.46 114.033 511.627 114.032V114.032C511.705 114.02 511.785 114.024 511.861 114.044C511.937 114.064 512.008 114.1 512.07 114.148C512.132 114.197 512.184 114.257 512.221 114.326C512.259 114.395 512.283 114.471 512.29 114.55V129.304" stroke="#263238" stroke-linecap="round" stroke-linejoin="round"/>
<path d="M561.423 100.873C561.64 102.178 561.961 104.064 561.961 104.064L554.563 104.613C554.563 104.613 555.247 100.469 555.299 100.158C555.422 99.4188 555.775 98.737 556.306 98.209C556.838 97.681 557.522 97.3334 558.262 97.2155C558.974 97.1948 559.668 97.4354 560.214 97.8916C560.76 98.3478 561.12 98.9882 561.226 99.6918" stroke="#263238" stroke-linecap="round" stroke-linejoin="round"/>
<path d="M567.815 117.306V109.566C567.815 107.494 565.93 106.012 563.619 106.178" stroke="#263238" stroke-linecap="round" stroke-linejoin="round"/>
<path d="M563.174 129.687V127.097L565.536 126.962C564.593 120.632 564.117 117.461 563.174 111.151C563.186 110.982 563.261 110.824 563.384 110.708C563.506 110.591 563.668 110.524 563.837 110.519C563.916 110.507 563.997 110.512 564.075 110.534C564.152 110.555 564.224 110.592 564.287 110.643C564.349 110.694 564.4 110.757 564.437 110.828C564.474 110.899 564.495 110.978 564.5 111.058V117.492C564.511 117.878 564.674 118.243 564.953 118.509C565.233 118.775 565.606 118.92 565.992 118.912" stroke="#263238" stroke-linecap="round" stroke-linejoin="round"/>
<path d="M563.174 133.034V131.241" stroke="#263238" stroke-linecap="round" stroke-linejoin="round"/>
<path d="M551.269 125.812C551.155 126.579 551.103 126.962 550.989 127.729L553.351 127.594V137.727C553.369 137.978 553.438 138.222 553.553 138.445C553.668 138.669 553.827 138.866 554.021 139.026C554.215 139.186 554.439 139.305 554.68 139.376C554.921 139.446 555.174 139.467 555.424 139.437C555.944 139.439 556.446 139.245 556.83 138.893C557.214 138.542 557.452 138.059 557.496 137.541V127.366L559.029 127.283V137.458C559.047 137.708 559.116 137.953 559.231 138.176C559.346 138.399 559.505 138.597 559.699 138.757C559.893 138.917 560.117 139.036 560.358 139.106C560.599 139.177 560.852 139.198 561.101 139.167C561.623 139.169 562.127 138.974 562.511 138.62C562.895 138.267 563.132 137.781 563.174 137.261V134.837" stroke="#263238" stroke-linecap="round" stroke-linejoin="round"/>
<path d="M560.034 106.437L552.906 106.955C551.853 106.991 550.85 107.412 550.087 108.138C549.323 108.863 548.852 109.843 548.761 110.892V118.445C548.775 118.819 548.932 119.173 549.2 119.434C549.469 119.695 549.827 119.842 550.201 119.844C550.647 119.879 551.089 119.736 551.43 119.447C551.772 119.158 551.985 118.746 552.025 118.3V111.876C552.04 111.709 552.116 111.552 552.238 111.435C552.36 111.319 552.52 111.251 552.688 111.244V111.244C552.768 111.233 552.849 111.238 552.926 111.259C553.003 111.28 553.076 111.318 553.138 111.368C553.2 111.419 553.251 111.482 553.288 111.553C553.325 111.625 553.346 111.703 553.351 111.783L551.745 122.662" stroke="#263238" stroke-linecap="round" stroke-linejoin="round"/>
<path d="M603.209 112.799L597.945 113.14C597.492 113.203 597.03 113.17 596.589 113.045C596.149 112.919 595.739 112.703 595.387 112.411C595.034 112.119 594.746 111.756 594.541 111.347C594.336 110.937 594.218 110.49 594.195 110.032V105.339C594.26 104.375 594.68 103.47 595.372 102.797C596.064 102.124 596.981 101.73 597.945 101.691L603.209 101.298C603.662 101.234 604.124 101.265 604.565 101.39C605.005 101.515 605.415 101.731 605.767 102.024C606.119 102.317 606.406 102.68 606.61 103.09C606.814 103.5 606.929 103.949 606.949 104.406V109.183C606.885 110.142 606.467 111.043 605.776 111.712C605.085 112.38 604.17 112.767 603.209 112.799Z" fill="#999999" stroke="#263238" stroke-linecap="round" stroke-linejoin="round"/>
<path d="M615.922 109.255L612.71 109.473V108.074C613.943 105.349 614.554 103.992 615.818 101.256L617.652 101.122V107.742H618.44V109.141H617.652V110.923L615.963 111.037L615.922 109.255ZM615.922 107.856V104.043C615.269 105.618 614.938 106.406 614.274 107.97L615.922 107.856Z" fill="#263238"/>
<path d="M619.186 108.447V107.67L620.771 107.566V108.447C620.771 109.151 621.113 109.379 621.652 109.338C622.19 109.296 622.522 109.027 622.522 108.302V106.095C622.522 105.39 622.18 105.142 621.652 105.183C621.123 105.225 620.771 105.504 620.771 106.219V106.302L619.186 106.416C619.31 104.209 619.372 103.111 619.486 100.914L623.921 100.583V101.992L620.988 102.199C620.937 103.142 620.906 103.619 620.854 104.561C621.01 104.317 621.224 104.114 621.477 103.971C621.73 103.828 622.014 103.75 622.304 103.743C623.537 103.66 624.169 104.416 624.169 105.867V108.095C624.2 108.438 624.158 108.784 624.045 109.11C623.932 109.435 623.751 109.733 623.513 109.983C623.276 110.233 622.988 110.43 622.669 110.559C622.35 110.689 622.006 110.75 621.662 110.737C621.339 110.804 621.005 110.792 620.687 110.704C620.369 110.616 620.077 110.453 619.834 110.229C619.592 110.005 619.407 109.727 619.294 109.417C619.181 109.107 619.144 108.774 619.186 108.447Z" fill="#263238"/>
<path d="M625.257 104.458V101.992C625.24 101.77 625.269 101.548 625.344 101.338C625.418 101.129 625.536 100.938 625.69 100.777C625.843 100.617 626.029 100.491 626.235 100.407C626.441 100.324 626.662 100.285 626.884 100.293C627.092 100.247 627.308 100.251 627.515 100.306C627.721 100.36 627.911 100.463 628.069 100.606C628.227 100.749 628.349 100.928 628.424 101.128C628.499 101.327 628.525 101.542 628.5 101.754V104.23C628.52 104.451 628.492 104.673 628.418 104.883C628.345 105.092 628.228 105.283 628.075 105.444C627.922 105.605 627.737 105.731 627.532 105.815C627.326 105.898 627.106 105.937 626.884 105.929C626.674 105.975 626.457 105.97 626.249 105.915C626.042 105.86 625.851 105.756 625.692 105.612C625.533 105.469 625.41 105.289 625.335 105.088C625.259 104.887 625.233 104.671 625.257 104.458V104.458ZM627.433 104.375V101.764C627.433 101.329 627.216 101.163 626.884 101.184C626.552 101.204 626.325 101.412 626.325 101.847V104.458C626.325 104.893 626.532 105.059 626.884 105.038C627.236 105.017 627.433 104.81 627.433 104.375V104.375ZM630.759 100.148L631.795 100.075C630.137 104.157 629.308 106.199 627.651 110.26L626.615 110.333C628.272 106.271 629.101 104.24 630.759 100.158V100.148ZM629.951 108.664V106.188C629.931 105.968 629.959 105.746 630.033 105.537C630.106 105.328 630.223 105.137 630.376 104.977C630.529 104.818 630.715 104.692 630.92 104.61C631.125 104.527 631.346 104.49 631.567 104.499C631.777 104.451 631.996 104.454 632.204 104.508C632.413 104.562 632.605 104.666 632.765 104.81C632.924 104.955 633.047 105.136 633.122 105.338C633.196 105.54 633.221 105.757 633.194 105.971V108.447C633.212 108.668 633.182 108.89 633.108 109.099C633.033 109.308 632.915 109.498 632.761 109.658C632.607 109.818 632.421 109.943 632.216 110.025C632.01 110.108 631.789 110.145 631.567 110.136C631.358 110.182 631.141 110.178 630.934 110.123C630.727 110.068 630.536 109.964 630.377 109.819C630.219 109.675 630.097 109.495 630.023 109.294C629.949 109.093 629.924 108.877 629.951 108.664V108.664ZM632.127 108.592V105.971C632.127 105.535 631.909 105.37 631.567 105.39C631.225 105.411 631.018 105.608 631.018 106.053V108.664C631.018 109.11 631.225 109.276 631.567 109.255C631.909 109.234 632.127 109.037 632.127 108.592V108.592Z" fill="#263238"/>
<path d="M603.209 129.635L597.945 129.905C597.487 129.958 597.023 129.916 596.582 129.783C596.141 129.649 595.732 129.426 595.38 129.128C595.028 128.83 594.742 128.462 594.538 128.049C594.334 127.635 594.217 127.184 594.195 126.724V121.989C594.259 121.031 594.68 120.132 595.374 119.468C596.068 118.805 596.985 118.425 597.945 118.404L603.209 118.083C603.666 118.026 604.13 118.066 604.571 118.197C605.013 118.329 605.422 118.551 605.773 118.849C606.125 119.147 606.41 119.514 606.613 119.928C606.815 120.342 606.93 120.793 606.949 121.253V126.061C606.887 127.017 606.468 127.915 605.776 128.577C605.083 129.239 604.167 129.617 603.209 129.635V129.635Z" fill="#7E8AF5" stroke="#263238" stroke-linecap="round" stroke-linejoin="round"/>
<path d="M613.062 125.802V125.025L614.658 124.942V125.812C614.658 126.517 614.989 126.745 615.528 126.724C616.067 126.703 616.399 126.423 616.399 125.688V123.491C616.399 122.797 616.067 122.548 615.528 122.579C614.989 122.61 614.658 122.89 614.658 123.616V123.698L613.062 123.781L613.373 118.311L617.808 118.041V119.45L614.875 119.616C614.813 120.559 614.793 121.025 614.73 121.958C614.887 121.715 615.102 121.515 615.355 121.375C615.608 121.236 615.892 121.162 616.181 121.16C617.424 121.087 618.046 121.854 618.046 123.294V125.512C618.08 125.853 618.039 126.198 617.926 126.522C617.813 126.846 617.631 127.141 617.393 127.388C617.154 127.634 616.864 127.826 616.544 127.949C616.224 128.073 615.881 128.125 615.539 128.102C615.215 128.169 614.879 128.158 614.56 128.069C614.242 127.98 613.949 127.817 613.706 127.591C613.464 127.366 613.279 127.086 613.167 126.775C613.055 126.463 613.019 126.13 613.062 125.802Z" fill="#263238"/>
<path d="M619.186 125.47V124.703L620.771 124.61V125.501C620.771 126.195 621.113 126.434 621.652 126.403C622.19 126.372 622.522 126.113 622.522 125.367V123.16C622.522 122.455 622.18 122.206 621.652 122.237C621.123 122.269 620.771 122.548 620.771 123.274V123.356L619.186 123.45C619.31 121.243 619.372 120.145 619.486 117.948L623.921 117.679V119.088L620.989 119.253C620.937 120.196 620.906 120.673 620.854 121.616C621.01 121.372 621.224 121.172 621.477 121.032C621.731 120.893 622.015 120.819 622.304 120.818C623.537 120.745 624.169 121.512 624.169 122.963V125.19C624.203 125.533 624.162 125.878 624.049 126.203C623.936 126.528 623.755 126.825 623.516 127.073C623.278 127.321 622.989 127.514 622.669 127.64C622.349 127.766 622.005 127.821 621.662 127.801C621.335 127.87 620.996 127.859 620.675 127.768C620.353 127.678 620.058 127.511 619.815 127.282C619.572 127.053 619.388 126.769 619.278 126.453C619.168 126.138 619.137 125.801 619.186 125.47Z" fill="#263238"/>
<path d="M625.257 121.595V119.129C625.238 118.908 625.266 118.686 625.34 118.477C625.414 118.267 625.532 118.077 625.686 117.918C625.841 117.758 626.028 117.634 626.234 117.554C626.441 117.473 626.662 117.438 626.884 117.451C627.094 117.406 627.311 117.412 627.518 117.469C627.725 117.525 627.915 117.63 628.074 117.775C628.232 117.92 628.353 118.101 628.427 118.302C628.501 118.503 628.526 118.719 628.5 118.932V121.409C628.52 121.628 628.492 121.849 628.419 122.057C628.345 122.265 628.228 122.455 628.074 122.613C627.921 122.771 627.735 122.895 627.53 122.975C627.324 123.055 627.104 123.09 626.884 123.077C626.674 123.121 626.456 123.114 626.249 123.058C626.042 123.001 625.851 122.896 625.692 122.752C625.533 122.607 625.411 122.427 625.335 122.226C625.26 122.025 625.233 121.809 625.257 121.595ZM627.433 121.543V118.932C627.433 118.487 627.215 118.321 626.884 118.342C626.552 118.362 626.324 118.559 626.324 118.994V121.605C626.324 122.041 626.532 122.217 626.884 122.196C627.236 122.175 627.433 121.978 627.433 121.543V121.543ZM630.759 117.399L631.795 117.337C630.137 121.398 629.308 123.429 627.651 127.47L626.615 127.522C628.272 123.45 629.101 121.419 630.759 117.357V117.399ZM629.951 125.905V123.429C629.931 123.209 629.959 122.988 630.032 122.78C630.106 122.573 630.223 122.383 630.377 122.225C630.53 122.066 630.716 121.943 630.921 121.863C631.127 121.783 631.347 121.748 631.567 121.761C631.778 121.716 631.997 121.723 632.205 121.78C632.413 121.837 632.605 121.943 632.764 122.089C632.923 122.235 633.045 122.416 633.12 122.619C633.194 122.821 633.22 123.039 633.194 123.253V125.74C633.214 125.96 633.186 126.182 633.112 126.391C633.037 126.599 632.919 126.79 632.764 126.948C632.61 127.107 632.423 127.23 632.216 127.309C632.009 127.388 631.788 127.422 631.567 127.408C631.352 127.452 631.129 127.444 630.918 127.384C630.706 127.323 630.513 127.212 630.354 127.06C630.195 126.908 630.075 126.72 630.005 126.512C629.934 126.303 629.916 126.081 629.951 125.864V125.905ZM632.127 125.905V123.284C632.127 122.849 631.909 122.673 631.567 122.693C631.225 122.714 631.018 122.911 631.018 123.346V125.967C631.018 126.403 631.225 126.579 631.567 126.558C631.909 126.537 632.127 126.258 632.127 125.822V125.905Z" fill="#263238"/>
<path d="M349.093 183.295L284.253 184.798V78.3376L349.093 70.8673V183.295Z" fill="#7E8AF5"/>
<path opacity="0.8" d="M349.093 183.295L284.253 184.798V78.3376L349.093 70.8673V183.295Z" fill="white"/>
<path d="M413.984 181.803L349.093 183.295V70.8673L413.943 63.3969L413.984 181.803Z" fill="#7E8AF5"/>
<path opacity="0.6" d="M413.984 181.803L349.093 183.295V70.8673L413.943 63.3969L413.984 181.803Z" fill="white"/>
<path d="M478.834 180.311L413.984 181.803V63.3969L478.834 55.9266V180.311Z" fill="#7E8AF5"/>
<path opacity="0.4" d="M478.834 180.311L413.984 181.803V63.3969L478.834 55.9266V180.311Z" fill="white"/>
<path d="M478.834 55.9266L284.295 78.3376" stroke="#7F7F7F" stroke-linecap="round" stroke-linejoin="round"/>
<path d="M284.295 93.5477L478.834 73.6958" stroke="#7F7F7F" stroke-linecap="round" stroke-linejoin="round"/>
<path d="M478.834 91.4651L284.295 108.758" stroke="#7F7F7F" stroke-linecap="round" stroke-linejoin="round"/>
<path d="M284.295 123.989L478.834 109.265" stroke="#7F7F7F" stroke-linecap="round" stroke-linejoin="round"/>
<path d="M478.834 127.004L284.295 139.168" stroke="#7F7F7F" stroke-linecap="round" stroke-linejoin="round"/>
<path d="M284.295 154.378L478.834 144.773" stroke="#7F7F7F" stroke-linecap="round" stroke-linejoin="round"/>
<path d="M478.834 162.542L284.295 169.577" stroke="#7F7F7F" stroke-linecap="round" stroke-linejoin="round"/>
<path d="M284.295 184.798L478.834 180.311" stroke="#7F7F7F" stroke-linecap="round" stroke-linejoin="round"/>
<path d="M300.499 184.425V76.4726" stroke="#7F7F7F" stroke-linecap="round" stroke-linejoin="round"/>
<path d="M284.295 78.3376V184.798" stroke="#7F7F7F" stroke-linecap="round" stroke-linejoin="round"/>
<path d="M332.93 183.668V72.7322" stroke="#7F7F7F" stroke-linecap="round" stroke-linejoin="round"/>
<path d="M316.715 74.5973V184.083" stroke="#7F7F7F" stroke-linecap="round" stroke-linejoin="round"/>
<path d="M365.349 182.922V69.0023" stroke="#7F7F7F" stroke-linecap="round" stroke-linejoin="round"/>
<path d="M349.093 70.8673V183.295" stroke="#7F7F7F" stroke-linecap="round" stroke-linejoin="round"/>
<path d="M397.79 182.176V65.2619" stroke="#7F7F7F" stroke-linecap="round" stroke-linejoin="round"/>
<path d="M381.565 67.1373V182.549" stroke="#7F7F7F" stroke-linecap="round" stroke-linejoin="round"/>
<path d="M430.199 181.43V61.5319" stroke="#7F7F7F" stroke-linecap="round" stroke-linejoin="round"/>
<path d="M413.984 63.3969V181.803" stroke="#7F7F7F" stroke-linecap="round" stroke-linejoin="round"/>
<path d="M462.619 180.684V57.8019" stroke="#7F7F7F" stroke-linecap="round" stroke-linejoin="round"/>
<path d="M446.404 59.6669V181.057" stroke="#7F7F7F" stroke-linecap="round" stroke-linejoin="round"/>
<path d="M478.834 55.9266V180.311" stroke="#7F7F7F" stroke-linecap="round" stroke-linejoin="round"/>
<path d="M284.295 78.3376V184.798L478.834 180.311V55.9784L284.295 78.3376Z" stroke="#263238" stroke-linecap="round" stroke-linejoin="round"/>
<path d="M284.295 169.577H285.455" stroke="#263238" stroke-linecap="round" stroke-linejoin="round"/>
<path d="M287.434 169.474L298.355 169.08" stroke="#263238" stroke-linecap="round" stroke-linejoin="round" stroke-dasharray="1.71 1.71"/>
<path d="M299.36 169.039H300.51L301.328 168.23" stroke="#263238" stroke-linecap="round" stroke-linejoin="round"/>
<path d="M302.945 166.583C307.804 161.765 310.197 159.33 315.088 154.429" stroke="#263238" stroke-linecap="round" stroke-linejoin="round" stroke-dasharray="1.98 1.98"/>
<path d="M315.938 153.611L316.756 152.782C317.088 153.072 317.253 153.227 317.575 153.528" stroke="#263238" stroke-linecap="round" stroke-linejoin="round"/>
<path d="M318.828 154.709L323.356 158.854" stroke="#263238" stroke-linecap="round" stroke-linejoin="round" stroke-dasharray="1.58 1.58"/>
<path d="M323.998 159.486L324.817 160.252C324.972 159.817 325.045 159.6 325.19 159.164" stroke="#263238" stroke-linecap="round" stroke-linejoin="round"/>
<path d="M325.853 157.144C328.402 149.601 329.676 145.809 332.225 138.183" stroke="#263238" stroke-linecap="round" stroke-linejoin="round" stroke-dasharray="1.83 1.83"/>
<path d="M332.515 137.23C332.671 136.784 332.743 136.567 332.888 136.132L334.038 136.059" stroke="#263238" stroke-linecap="round" stroke-linejoin="round"/>
<path d="M336.017 135.935L338.908 135.759" stroke="#263238" stroke-linecap="round" stroke-linejoin="round" stroke-dasharray="1.67 1.67"/>
<path d="M339.872 135.697L341.032 135.624L341.55 134.588" stroke="#263238" stroke-linecap="round" stroke-linejoin="round"/>
<path d="M342.565 132.516L348.119 121.118" stroke="#263238" stroke-linecap="round" stroke-linejoin="round" stroke-dasharray="1.95 1.95"/>
<path d="M348.616 120.113L349.134 119.077L350.295 118.984" stroke="#263238" stroke-linecap="round" stroke-linejoin="round"/>
<path d="M352.284 118.808L363.194 117.979" stroke="#263238" stroke-linecap="round" stroke-linejoin="round" stroke-dasharray="1.71 1.71"/>
<path d="M364.189 117.917L365.349 117.824L366.168 116.943" stroke="#263238" stroke-linecap="round" stroke-linejoin="round"/>
<path d="M367.463 115.544L371.991 110.623" stroke="#263238" stroke-linecap="round" stroke-linejoin="round" stroke-dasharray="1.58 1.58"/>
<path d="M372.633 109.918L373.452 109.017L374.612 108.924" stroke="#263238" stroke-linecap="round" stroke-linejoin="round"/>
<path d="M376.923 108.737L389.667 107.701C392.257 104.831 393.552 103.401 396.143 100.51" stroke="#263238" stroke-linecap="round" stroke-linejoin="round" stroke-dasharray="1.99 1.99"/>
<path d="M396.951 99.5882C397.282 99.2152 397.448 99.039 397.769 98.666L398.588 99.4431" stroke="#263238" stroke-linecap="round" stroke-linejoin="round"/>
<path d="M400.215 100.966C405.064 105.567 407.467 107.887 412.358 112.571" stroke="#263238" stroke-linecap="round" stroke-linejoin="round" stroke-dasharray="1.98 1.98"/>
<path d="M413.166 113.358L413.984 114.145C414.316 113.783 414.471 113.596 414.803 113.223" stroke="#263238" stroke-linecap="round" stroke-linejoin="round"/>
<path d="M416.098 111.773C417.911 109.701 418.813 108.727 420.626 106.675" stroke="#263238" stroke-linecap="round" stroke-linejoin="round" stroke-dasharray="1.58 1.58"/>
<path d="M421.268 105.95L422.087 105.017L423.247 104.924" stroke="#263238" stroke-linecap="round" stroke-linejoin="round"/>
<path d="M425.475 104.738L438.302 103.702C441.545 99.9819 443.161 98.1169 446.404 94.3766L452.238 93.8585" stroke="#263238" stroke-linecap="round" stroke-linejoin="round" stroke-dasharray="1.93 1.93"/>
<path d="M453.357 93.7342L454.517 93.6306L455.035 92.4701" stroke="#263238" stroke-linecap="round" stroke-linejoin="round"/>
<path d="M456.04 90.201C458.257 85.207 459.376 82.6996 461.594 77.6745" stroke="#263238" stroke-linecap="round" stroke-linejoin="round" stroke-dasharray="1.95 1.95"/>
<path d="M462.101 76.5244L462.619 75.3536" stroke="#263238" stroke-linecap="round" stroke-linejoin="round"/>
<path d="M284.295 154.378L300.499 153.58C306.985 150.171 310.229 148.451 316.715 144.959L324.817 144.503C328.06 138.028 329.687 134.764 332.93 128.206C336.173 124.807 337.789 123.108 341.032 119.668C344.275 113.037 345.891 109.701 349.134 102.987C355.62 105.629 358.863 106.965 365.349 109.69C368.592 112.674 370.209 114.177 373.452 117.212C379.938 110.167 383.181 106.603 389.667 99.3913C392.91 92.4598 394.526 89.0302 397.769 81.964C404.255 87.9838 407.498 91.0403 413.984 97.2259C417.227 103.712 418.844 106.965 422.087 113.534L438.302 112.301C441.545 108.613 443.161 106.758 446.404 102.976C449.647 92.3044 451.274 86.9373 454.517 76.1411C457.75 68.8261 459.376 65.148 462.619 57.7605" stroke="#263238" stroke-linecap="round" stroke-linejoin="round"/>
<path d="M315.378 197.397C315.045 197.512 314.694 197.568 314.342 197.563C314.028 197.601 313.71 197.568 313.411 197.465C313.112 197.362 312.841 197.192 312.618 196.968C312.395 196.744 312.226 196.472 312.125 196.173C312.023 195.874 311.991 195.555 312.031 195.242V190.299C311.995 189.984 312.029 189.664 312.132 189.362C312.234 189.061 312.401 188.786 312.622 188.558C312.843 188.329 313.112 188.152 313.409 188.039C313.706 187.927 314.025 187.881 314.342 187.906C314.655 187.866 314.974 187.898 315.273 187.999C315.572 188.101 315.844 188.27 316.068 188.493C316.292 188.716 316.462 188.987 316.565 189.286C316.668 189.585 316.702 189.903 316.663 190.217V195.148C316.682 195.694 316.534 196.233 316.238 196.692C316.342 196.879 316.528 196.91 316.808 196.899H317.036V198.236H316.642C316.366 198.269 316.087 198.203 315.856 198.049C315.624 197.895 315.455 197.664 315.378 197.397V197.397ZM315.16 195.325V190.217C315.16 189.543 314.85 189.294 314.363 189.305C313.876 189.315 313.575 189.574 313.575 190.248V195.345C313.575 196.019 313.886 196.267 314.363 196.257C314.839 196.247 315.16 195.967 315.16 195.294V195.325Z" fill="#263238"/>
<path d="M319.854 190.196H318.258V189.16C319.553 189.16 320.009 188.859 320.331 187.937H321.367V197.345H319.833L319.854 190.196Z" fill="#263238"/>
<path d="M379.793 196.63C379.461 196.753 379.11 196.816 378.757 196.817C378.434 196.843 378.109 196.797 377.807 196.681C377.504 196.565 377.232 196.382 377.01 196.146C376.788 195.91 376.622 195.627 376.524 195.318C376.427 195.009 376.4 194.682 376.446 194.361V189.18C376.402 188.857 376.429 188.527 376.526 188.215C376.624 187.903 376.788 187.616 377.009 187.375C377.229 187.134 377.5 186.944 377.802 186.819C378.104 186.694 378.43 186.637 378.757 186.652C380.259 186.652 381.078 187.512 381.078 189.098V194.278C381.105 194.851 380.957 195.419 380.653 195.905C380.756 196.102 380.943 196.133 381.223 196.122H381.461V197.552H381.057C380.77 197.582 380.482 197.504 380.248 197.333C380.015 197.163 379.853 196.913 379.793 196.63V196.63ZM379.575 194.423V189.035C379.575 188.331 379.264 188.062 378.777 188.072C378.29 188.082 377.99 188.362 377.99 189.108V194.444C377.99 195.148 378.301 195.408 378.777 195.408C379.254 195.408 379.575 195.128 379.575 194.444V194.423Z" fill="#263238"/>
<path d="M382.103 195.563C382.091 194.9 382.221 194.242 382.486 193.634C382.75 193.026 383.143 192.483 383.637 192.04C384.797 190.776 385.129 189.968 385.129 189.087C385.129 188.207 384.828 187.958 384.341 187.968C383.854 187.979 383.543 188.258 383.543 189.004V190.04H382.103V189.077C382.103 187.492 382.88 186.569 384.383 186.549C385.885 186.528 386.662 187.409 386.662 188.994C386.662 190.175 386.186 191.232 384.766 192.786C383.854 193.822 383.616 194.288 383.616 194.972V195.19H386.517V196.609L382.103 196.661V195.563Z" fill="#263238"/>
<path d="M444.684 195.863C444.354 195.994 444.003 196.061 443.648 196.06C442.146 196.06 441.327 195.138 441.327 193.48V188.03C441.327 186.373 442.146 185.409 443.648 185.378C445.15 185.347 445.969 186.29 445.969 187.948V193.408C445.992 194.008 445.841 194.601 445.534 195.117C445.648 195.325 445.824 195.356 446.104 195.345H446.342V196.827H445.938C445.646 196.852 445.356 196.767 445.124 196.589C444.892 196.41 444.735 196.152 444.684 195.863V195.863ZM444.456 193.542V187.875C444.456 187.129 444.156 186.839 443.669 186.839C443.182 186.839 442.881 187.139 442.881 187.875V193.542C442.881 194.278 443.182 194.579 443.669 194.579C444.156 194.579 444.415 194.278 444.415 193.542H444.456Z" fill="#263238"/>
<path d="M446.912 193.408V192.558H448.352V193.48C448.352 194.216 448.653 194.516 449.139 194.516C449.626 194.516 449.937 194.247 449.937 193.325V192.475C449.937 191.512 449.626 191.159 448.901 191.17H448.393V189.678H448.943C449.512 189.678 449.865 189.398 449.865 188.559V187.802C449.865 187.056 449.544 186.766 449.098 186.766C448.653 186.766 448.362 187.067 448.362 187.751V188.434H446.922V187.885C446.922 186.217 447.699 185.274 449.15 185.254C450.6 185.233 451.388 186.114 451.388 187.782V188.227C451.388 189.346 451.056 190.04 450.352 190.351C451.17 190.662 451.471 191.387 451.471 192.475V193.408C451.471 195.076 450.694 195.998 449.191 196.008C447.689 196.019 446.912 195.097 446.912 193.408Z" fill="#263238"/>
<path d="M343.001 136.971C343.001 136.971 327.573 123.719 337.82 114.964C337.82 114.964 342.762 99.4223 358.998 101.609C375.234 103.795 367.101 94.6044 367.101 94.6044C367.101 94.6044 376.301 99.4224 372.074 103.142C373.344 103.202 374.606 102.906 375.717 102.287C376.829 101.668 377.745 100.751 378.363 99.6399C378.363 99.6399 381.192 104.675 375.907 106.893C375.907 106.893 382.818 108.644 380.974 112.591C380.974 112.591 376.063 109.98 374.757 119.844C373.452 129.708 357.827 128.268 357.827 128.268L343.001 136.971Z" fill="#263238" stroke="#263238" stroke-linecap="round" stroke-linejoin="round"/>
<path d="M343.985 140.255C343.985 139.748 340.317 150.927 347.29 149.984C350.595 149.539 345.891 140.255 345.891 140.255H343.985Z" fill="#263238" stroke="#263238" stroke-linecap="round" stroke-linejoin="round"/>
<path d="M378 110.042C378 110.042 373.856 109.379 373.037 114.187" stroke="#7F7F7F" stroke-linecap="round" stroke-linejoin="round"/>
<path d="M368.189 108.892C366.551 111.027 367.101 114.197 367.101 114.197" stroke="#7F7F7F" stroke-linecap="round" stroke-linejoin="round"/>
<path d="M376.83 103.142C375.313 105.215 373.11 106.684 370.613 107.286" stroke="#7F7F7F" stroke-linecap="round" stroke-linejoin="round"/>
<path d="M357.796 108.675C357.796 108.675 364.448 107.359 363.567 114.197" stroke="#7F7F7F" stroke-linecap="round" stroke-linejoin="round"/>
<path d="M390.413 273.976C390.413 273.976 395.935 302.8 390.413 331.044C384.891 359.289 381.482 449.99 381.482 449.99H347.114V269.468L388.683 268.008L390.413 273.976Z" fill="#999999"/>
<path opacity="0.2" d="M369.991 312.654C369.991 312.654 368.499 322.621 375.949 320.103C383.399 317.585 388.569 318.456 382.352 324.092C376.136 329.729 367.515 338.266 366.137 369.142C364.759 400.018 362.625 449.959 362.625 449.959H347.653L344.545 335.282L358.149 315.254L364.479 312.622L369.991 312.654Z" fill="black"/>
<path d="M390.413 273.976C390.413 273.976 395.935 302.8 390.413 331.044C384.891 359.289 381.482 449.99 381.482 449.99H347.114V269.468L388.683 268.008L390.413 273.976Z" stroke="#263238" stroke-linecap="round" stroke-linejoin="round"/>
<path d="M386.269 320.207C386.269 320.207 378.57 318.57 369.991 328.091" stroke="#263238" stroke-linecap="round" stroke-linejoin="round"/>
<path d="M374.882 277.219C374.882 277.219 374.529 309.338 370.385 321.523C366.241 333.707 360.024 390.88 360.718 450H325.19C325.19 450 323.118 343.208 321.719 327.439C320.32 311.669 313.088 314.311 323.097 269.479H376.343L374.882 277.219Z" fill="#999999" stroke="#263238" stroke-linecap="round" stroke-linejoin="round"/>
<path d="M368.147 284.098C370.882 283.912 373.379 283.694 375.648 283.466L375.949 288.761C373.587 288.999 370.976 289.227 368.147 289.414V284.098Z" fill="#263238"/>
<path d="M379.513 283.031C383.803 282.523 386.911 281.995 388.589 281.695L389.304 286.927C387.356 287.279 384.02 287.828 379.513 288.367V283.031Z" fill="#263238"/>
<path d="M321.201 288.253L322.009 283.073C327.832 283.725 333.406 284.16 338.722 284.409L338.369 289.662C332.95 289.372 327.21 288.937 321.201 288.253Z" fill="#263238"/>
<path d="M342.762 284.585C350.865 284.844 358.18 284.699 364.521 284.357V289.662C360.501 289.869 356.087 290.004 351.341 290.004C348.544 290.004 345.622 289.952 342.597 289.849L342.762 284.585Z" fill="#263238"/>
<path d="M441.503 227.952L450.248 222.678C450.248 222.678 453.926 213.042 458.537 210.421C463.148 207.799 467.738 205.385 468.898 206.038C470.059 206.691 468.67 208.887 465.676 211.073C463.811 212.441 469.24 210.12 476.203 206.929C480.347 205.002 485.134 202.318 485.87 203.479C488.574 207.696 474.742 213.063 474.742 213.063C474.742 213.063 479.487 212.835 477.643 216.337C477.643 216.337 478.337 219.621 476.721 220.72L474.887 222.958C474.133 225.167 472.677 227.07 470.742 228.376C466.57 230.7 461.927 232.049 457.159 232.324L445.658 240.375L441.503 227.952Z" fill="white" stroke="#263238" stroke-linecap="round" stroke-linejoin="round"/>
<path d="M471.882 213.488C471.882 213.488 462.101 215.456 462.619 217.632C463.137 219.808 466.173 218.274 466.173 218.274C466.173 218.274 462.941 219.373 463.293 220.575C463.645 221.776 465.935 221.756 465.935 221.756C465.935 221.756 462.941 222.44 463.293 223.828C463.645 225.216 465.634 225.693 467.282 225.475C468.929 225.258 470.193 224.698 470.66 225.527C471.126 226.356 466.163 225.03 463.293 227.061" stroke="#263238" stroke-linecap="round" stroke-linejoin="round"/>
<path d="M464.101 211.84C463.948 213.055 463.44 214.198 462.64 215.125C461.449 216.223 462.485 219.943 458.112 223.994" stroke="#263238" stroke-linecap="round" stroke-linejoin="round"/>
<path d="M474.037 217.259L468.598 217.912" stroke="#263238" stroke-linecap="round" stroke-linejoin="round"/>
<path d="M473.602 221.362L468.598 221.776" stroke="#263238" stroke-linecap="round" stroke-linejoin="round"/>
<path d="M420.792 233.516C428.386 231.443 437.566 225.776 441.98 222.844C442.234 222.668 442.529 222.56 442.836 222.53C443.144 222.499 443.454 222.546 443.738 222.667C444.022 222.788 444.271 222.978 444.462 223.221C444.653 223.464 444.779 223.751 444.829 224.056C445.327 228.066 446.902 234.894 452.206 236.748C459.801 239.421 452.548 243.545 447.72 244.933C442.892 246.322 408.348 263.065 397.987 260.776C387.626 258.486 384.176 256.828 379.337 246.819C374.498 236.81 376.912 188.528 376.912 188.528L391.418 184.912C391.418 184.912 395.21 188.31 397.054 211.073C398.899 233.837 401.934 236.686 401.934 236.686C401.934 236.686 411.145 229.879 408.731 236.458C408.711 236.458 418.181 234.22 420.792 233.516Z" fill="#7E8AF5" stroke="#263238" stroke-linecap="round" stroke-linejoin="round"/>
<path d="M403.872 240.364C403.872 240.364 400.132 252.86 397.314 251.906C394.495 250.953 395.241 247.544 399.904 240.364" stroke="#263238" stroke-linecap="round" stroke-linejoin="round"/>
<path d="M391.449 184.912C384.725 178.519 374.871 172.105 354.512 170.79C334.152 169.474 305.815 174.406 304.779 182.29C303.743 190.175 315.482 232.438 315.482 270.297C315.482 275.882 316.176 282.119 327.915 282.119C339.654 282.119 393.511 286.057 394.226 273.25C394.941 260.444 391.47 247.638 392.506 229.247C393.542 210.856 396.63 189.844 391.449 184.912Z" fill="#7E8AF5" stroke="#263238" stroke-linecap="round" stroke-linejoin="round"/>
<path d="M310.498 176.83C310.498 176.83 302.043 179.348 300.199 192.05C298.355 204.753 290.304 233.422 293.299 234.085C296.293 234.748 286.16 239.774 289.838 247.223C293.516 254.673 310.094 278.742 319.761 276.12C329.428 273.499 328.961 258.6 325.977 255.978C322.993 253.357 312.829 247.855 312.829 247.855C312.829 247.855 315.813 246.104 312.135 242.82C308.457 239.535 314.798 244.478 316.735 233.402C319.035 220.274 327.096 201.438 322.258 190.061" fill="#7E8AF5"/>
<path d="M310.498 176.83C310.498 176.83 302.043 179.348 300.199 192.05C298.355 204.753 290.304 233.422 293.299 234.085C296.293 234.748 286.16 239.774 289.838 247.223C293.516 254.673 310.094 278.742 319.761 276.12C329.428 273.499 328.961 258.6 325.977 255.978C322.993 253.357 312.829 247.855 312.829 247.855C312.829 247.855 315.813 246.104 312.135 242.82C308.457 239.535 314.798 244.478 316.735 233.402C319.035 220.274 327.096 201.438 322.258 190.061" stroke="#263238" stroke-linecap="round" stroke-linejoin="round"/>
<path d="M311.016 236.033C311.016 236.033 297.899 232.925 294.438 238.219C290.978 243.514 299.888 237.132 308.436 239.318" stroke="#263238" stroke-linecap="round" stroke-linejoin="round"/>
<path d="M329.998 260.993C327.925 259.512 322.983 256.942 319.761 259.957C316.539 262.972 308.83 264.765 309.286 267.065C309.742 269.365 312.622 270.028 317.803 267.51C322.983 264.992 318.704 268.163 319.636 273.198C320.569 278.234 321.325 282.814 325.377 281.954C325.377 281.954 325.739 284.14 329.428 283.155C329.428 283.155 332.184 285.414 336.556 283.415C336.556 283.415 338.981 285.891 342.545 281.622C346.109 277.353 343.913 276.296 343.913 276.296C343.913 276.296 342.307 271.354 338.732 276.296C338.732 276.296 339.354 270.183 335.748 266.35C333.961 264.43 332.039 262.64 329.998 260.993V260.993Z" fill="white" stroke="#263238" stroke-linecap="round" stroke-linejoin="round"/>
<path d="M326.931 280.441C326.931 280.441 332.764 276.721 331.5 274.535C330.236 272.349 325.511 276.939 325.511 276.939C325.511 276.939 326.205 275.758 324.827 273.944" stroke="#263238" stroke-linecap="round" stroke-linejoin="round"/>
<path d="M331.148 281.674C331.148 281.674 339.965 278.928 337.944 276.296C336.152 273.976 332.36 276.638 332.36 276.638" stroke="#263238" stroke-linecap="round" stroke-linejoin="round"/>
<path d="M342.876 277.219C342.876 277.219 341.944 279.85 337.81 282.399" stroke="#263238" stroke-linecap="round" stroke-linejoin="round"/>
<path d="M328.247 269.469C329.494 271.392 331.233 272.948 333.282 273.976" stroke="#263238" stroke-linecap="round" stroke-linejoin="round"/>
<path d="M311.016 246.819C311.016 246.819 303.597 243.203 297.899 245.99" stroke="#263238" stroke-linecap="round" stroke-linejoin="round"/>
<path d="M367.111 177.524L361.184 175.39L354.512 177.524C354.512 177.524 358.998 184.259 360.811 184.58C360.811 184.58 367.308 235.018 369.359 258.569C371.411 282.119 370.737 284.295 370.737 284.295L379.71 291.641L386.269 282.378C386.269 282.378 382.818 245.338 378.332 223.32C375.551 209.859 371.266 196.753 365.557 184.249C365.557 184.249 368.199 180.86 367.111 177.524Z" fill="#7E8AF5"/>
<path opacity="0.3" d="M367.111 177.524L361.184 175.39L354.512 177.524C354.512 177.524 358.998 184.259 360.811 184.58C360.811 184.58 367.308 235.018 369.359 258.569C371.411 282.119 370.737 284.295 370.737 284.295L379.71 291.641L386.269 282.378C386.269 282.378 382.818 245.338 378.332 223.32C375.551 209.859 371.266 196.753 365.557 184.249C365.557 184.249 368.199 180.86 367.111 177.524Z" fill="black"/>
<path d="M367.111 177.524L361.184 175.39L354.512 177.524C354.512 177.524 358.998 184.259 360.811 184.58C360.811 184.58 367.308 235.018 369.359 258.569C371.411 282.119 370.737 284.295 370.737 284.295L379.71 291.641L386.269 282.378C386.269 282.378 382.818 245.338 378.332 223.32C375.551 209.859 371.266 196.753 365.557 184.249C365.557 184.249 368.199 180.86 367.111 177.524Z" stroke="#263238" stroke-linecap="round" stroke-linejoin="round"/>
<path d="M367.816 160.252C367.816 160.252 366.645 167.826 369.556 173.017C369.556 173.017 363.257 175.773 360.552 176.125C357.848 176.478 343.975 168.21 343.975 168.21C345.788 159.506 346.436 150.601 345.902 141.727C345.011 127.118 361.578 150.855 361.578 150.855L369.546 158.108L367.816 160.252Z" fill="white"/>
<path d="M370.385 160.946C370.385 160.946 370.551 165.868 363.567 165.702C356.584 165.536 349.642 155.155 348.471 152.564C347.301 149.974 345.912 137.789 345.912 137.789L363.526 142.742L372.074 160.252L370.385 160.946Z" fill="#263238" stroke="#263238" stroke-linecap="round" stroke-linejoin="round"/>
<path d="M367.816 160.252C367.816 160.252 366.645 167.826 369.556 173.017C369.556 173.017 363.257 175.773 360.552 176.125C357.848 176.478 343.975 168.21 343.975 168.21C345.788 159.506 346.436 150.601 345.902 141.727C345.011 127.118 361.578 150.855 361.578 150.855L369.546 158.108L367.816 160.252Z" stroke="#263238" stroke-linecap="round" stroke-linejoin="round"/>
<path d="M368.551 169.256C368.551 169.256 365.101 175.172 361.184 175.39C357.268 175.607 344.151 162.957 341.395 164.884C339.677 166.181 338.424 167.998 337.82 170.064L349.549 183.958C349.549 183.958 358.138 176.623 361.588 176.84C365.039 177.058 372.457 183.958 372.457 183.958V173.898C372.457 173.898 370.178 166.966 368.551 169.256Z" fill="#7E8AF5" stroke="#263238" stroke-linecap="round" stroke-linejoin="round"/>
<path d="M373.556 116.135C373.556 116.135 378.384 130.298 377.431 133.904C377.431 133.904 381.927 160.75 371.214 162.915C362.759 164.594 354.398 156.471 351.207 152.906C350.339 151.931 349.673 150.794 349.248 149.56L347.176 143.488C347.176 143.488 342.959 143.799 340.39 138.142C337.82 132.485 343.053 126.993 347.104 135.562C347.104 135.562 350.274 126.9 350.036 123.419C349.798 119.937 354.367 120.787 355.31 117.347C355.31 117.326 366.147 119.077 373.556 116.135Z" fill="white"/>
<path d="M373.556 116.135C373.556 116.135 378.384 130.298 377.431 133.904C377.431 133.904 381.927 160.75 371.214 162.915C362.759 164.594 354.398 156.471 351.207 152.906C350.339 151.931 349.673 150.794 349.248 149.56L347.176 143.488C347.176 143.488 342.959 143.799 340.39 138.142C337.82 132.485 343.053 126.993 347.104 135.562C347.104 135.562 350.274 126.9 350.036 123.419C349.798 119.937 354.367 120.787 355.31 117.347C355.31 117.326 366.147 119.077 373.556 116.135Z" stroke="#263238" stroke-linecap="round" stroke-linejoin="round"/>
<path d="M373.037 136.349L378.757 143.55C378.891 143.722 378.981 143.924 379.02 144.138C379.059 144.353 379.047 144.574 378.983 144.782C378.918 144.99 378.805 145.18 378.652 145.335C378.499 145.491 378.311 145.607 378.104 145.674L374.042 147.104" fill="white"/>
<path d="M373.037 136.349L378.757 143.55C378.891 143.722 378.981 143.924 379.02 144.138C379.059 144.353 379.047 144.574 378.983 144.782C378.918 144.99 378.805 145.18 378.652 145.335C378.499 145.491 378.311 145.607 378.104 145.674L374.042 147.104" stroke="#263238" stroke-linecap="round" stroke-linejoin="round"/>
<path d="M364.718 149.984C364.718 149.984 366.489 153.632 372.416 150.409" stroke="#263238" stroke-linecap="round" stroke-linejoin="round"/>
<path d="M372.063 136.059C372.24 139.644 370.478 142.628 368.137 142.732C365.795 142.835 363.754 140.017 363.578 136.443C363.402 132.868 365.163 131.832 367.505 131.728C369.846 131.625 371.887 132.474 372.063 136.059Z" stroke="#263238" stroke-linecap="round" stroke-linejoin="round"/>
<path d="M382.849 135.251C383.026 138.836 381.616 141.81 379.741 141.892C377.866 141.975 376.135 139.147 375.959 135.562C375.783 131.977 377.213 130.972 379.13 130.879C381.047 130.785 382.673 131.666 382.849 135.251Z" fill="white" stroke="#263238" stroke-linecap="round" stroke-linejoin="round"/>
<path d="M363.599 130.848C363.599 130.848 366.147 127.118 370.665 129.967" stroke="#263238" stroke-linecap="round" stroke-linejoin="round"/>
<path d="M376.032 129.956C376.836 129.035 377.934 128.42 379.14 128.216" stroke="#263238" stroke-linecap="round" stroke-linejoin="round"/>
<path d="M363.598 136.422C362.103 136.84 360.568 137.104 359.019 137.209C355.506 136.867 345.933 132.215 345.933 132.215" stroke="#263238" stroke-linecap="round" stroke-linejoin="round"/>
<path d="M375.908 134.971L372.24 135.603" stroke="#263238" stroke-linecap="round" stroke-linejoin="round"/>
<path d="M370.002 136.494C369.898 137.603 369.235 138.442 368.51 138.38C367.784 138.318 367.297 137.344 367.391 136.308C367.484 135.272 368.168 134.36 368.883 134.422C369.598 134.484 370.105 135.386 370.002 136.494Z" fill="#263238"/>
<path d="M378.933 135.282C378.829 136.318 378.332 137.199 377.814 137.147C377.296 137.095 376.964 136.204 377.068 135.127C377.172 134.049 377.659 133.22 378.177 133.262C378.695 133.303 379.026 134.215 378.933 135.282Z" fill="#263238"/>
<path d="M337.996 260.081C339.809 255.398 351.984 256.175 351.984 256.175" stroke="#263238" stroke-linecap="round" stroke-linejoin="round"/>
<path d="M367.038 262.444C354.139 265.552 340.1 267.78 338.245 263.397" stroke="#263238" stroke-linecap="round" stroke-linejoin="round"/>
<path d="M389.304 256.175C389.304 256.175 387.957 256.61 385.709 257.305" stroke="#263238" stroke-linecap="round" stroke-linejoin="round"/>
<path d="M654.33 449.99H199.251V389.398C199.251 389.398 287.434 355.206 401.292 355.206C540.099 355.258 654.33 449.99 654.33 449.99Z" fill="#7E8AF5" stroke="#263238" stroke-linecap="round" stroke-linejoin="round"/>
<path opacity="0.2" d="M466.826 372.157L413.104 364.915L358.459 374.146L412.182 381.399L466.826 372.157Z" fill="black"/>
<path d="M460.247 371.649L410.327 364.915L359.547 373.494L409.467 380.228L460.247 371.649Z" fill="white" stroke="#263238" stroke-linecap="round" stroke-linejoin="round"/>
<path d="M466.826 369.629L416.906 362.894L366.126 371.473L416.046 378.208L466.826 369.629Z" fill="white" stroke="#263238" stroke-linecap="round" stroke-linejoin="round"/>
<path opacity="0.2" d="M364.261 406.919C373.732 406.919 381.409 405.351 381.409 403.417C381.409 401.482 373.732 399.914 364.261 399.914C354.791 399.914 347.114 401.482 347.114 403.417C347.114 405.351 354.791 406.919 364.261 406.919Z" fill="black"/>
<path d="M374.177 402.463C374.177 403.437 368.644 404.225 361.806 404.225C354.968 404.225 349.445 403.437 349.445 402.463V379.254C349.445 378.281 354.978 377.493 361.806 377.493C368.634 377.493 374.177 378.281 374.177 379.254V402.463Z" fill="white" stroke="#263238" stroke-linecap="round" stroke-linejoin="round"/>
<path d="M374.177 379.254C374.177 380.228 368.644 381.016 361.806 381.016C354.968 381.016 349.445 380.228 349.445 379.254C349.445 378.281 354.978 377.493 361.806 377.493C368.634 377.493 374.177 378.281 374.177 379.254Z" fill="white" stroke="#263238" stroke-linecap="round" stroke-linejoin="round"/>
<path d="M372.685 400.267C372.358 400.273 372.04 400.162 371.788 399.952C371.537 399.743 371.37 399.45 371.317 399.127C371.294 398.951 371.307 398.772 371.354 398.601C371.401 398.43 371.482 398.27 371.592 398.131C371.703 397.992 371.84 397.877 371.995 397.791C372.151 397.706 372.322 397.653 372.499 397.635C372.809 397.635 380.311 396.475 380.311 389.719C380.311 388.02 379.855 386.87 378.964 386.29C377.296 385.254 374.177 386.062 373.213 386.445C372.876 386.579 372.5 386.579 372.162 386.444C371.825 386.309 371.552 386.05 371.4 385.72C371.334 385.558 371.301 385.384 371.303 385.208C371.305 385.033 371.343 384.86 371.413 384.699C371.484 384.539 371.586 384.394 371.714 384.274C371.841 384.154 371.992 384.061 372.157 384C372.685 383.793 377.337 382.073 380.508 384.103C382.217 385.202 383.088 387.087 383.088 389.719C383.088 396.972 376.415 399.78 372.882 400.256L372.685 400.267Z" fill="white" stroke="#263238" stroke-linecap="round" stroke-linejoin="round"/>
<path d="M390.454 385.16C389.636 385.948 389.076 386.694 389.221 386.839C389.366 386.984 390.154 386.445 390.983 385.658C391.812 384.87 392.361 384.124 392.216 383.99C392.071 383.855 391.283 384.383 390.454 385.16Z" fill="#263238" stroke="#263238" stroke-linecap="round" stroke-linejoin="round"/>
<path d="M394.91 378.042C391.522 381.265 389.574 384.632 390.558 385.564C391.542 386.497 395.096 384.653 398.484 381.42L420.315 360.646C423.703 357.424 425.651 354.046 424.667 353.114C423.682 352.181 420.139 354.025 416.751 357.258L394.91 378.042Z" fill="#7E8AF5" stroke="#263238" stroke-linecap="round" stroke-linejoin="round"/>
<path d="M417.113 363.702L416.212 364.562C415.58 364.055 414.958 363.526 414.357 362.936C413.756 362.345 413.176 361.765 412.648 361.174L413.549 360.314C414.078 360.905 414.648 361.496 415.259 362.076C415.87 362.656 416.492 363.195 417.113 363.702Z" fill="#263238" stroke="#263238" stroke-linecap="round" stroke-linejoin="round"/>
<path d="M421.983 353.455C421.983 353.455 420.47 352.523 417.01 355.072C413.549 357.621 410.327 362.024 408.721 361.879" stroke="#263238" stroke-linecap="round" stroke-linejoin="round"/>
<path d="M379.938 396.35C379.938 396.35 382.456 390.268 382.456 387.16C382.456 384.052 389.004 373.577 393.853 371.732C398.702 369.888 415.031 362.19 416.222 365.308C417.414 368.427 410.068 372.292 408.524 373.017C406.807 374.095 405.191 375.326 403.696 376.695C403.696 376.695 411.166 375.203 411.985 372.841C412.803 370.479 415.093 367.329 416.336 369.349C417.58 371.37 417.01 376.509 415.072 380.456V383.119C415.072 383.119 417.196 386.228 414.886 388.807L413.104 390.641C413.104 390.641 416.212 393.75 411.985 396.34C411.985 396.34 413.922 399.096 410.441 401.842C410.441 401.842 403.105 405.333 398.474 406.432C393.842 407.53 389.791 414.151 389.791 414.151L379.938 396.35Z" fill="white" stroke="#263238" stroke-linecap="round" stroke-linejoin="round"/>
<path d="M238.064 291.03L250.165 264.019L242.374 241.39L241.597 215.435L262.92 203.479L281.746 200.308L289.423 204.753L292.615 212.151C292.615 212.151 302.188 231.505 300.707 235.225C299.225 238.945 298.127 242.478 298.127 242.478C298.127 242.478 302.644 252.528 305.317 255.719C307.99 258.911 299.702 256.973 298.728 262.723C297.754 268.474 298.914 283.736 291.806 284.43C284.699 285.124 280.409 282.917 279.757 288.916C279.104 294.915 271.81 310.146 271.81 310.146L238.064 291.03Z" fill="white" stroke="#263238" stroke-linecap="round" stroke-linejoin="round"/>
<path d="M297.432 183.047C296.396 179.565 286.419 184.404 285.383 191.864C285.383 191.864 284.108 180.467 280.813 179.379C277.933 178.436 273.954 183.606 275.394 189.74C275.394 189.74 264.629 184.083 261.158 185.399C258.589 186.373 257.687 191.387 263.231 195.76C263.231 195.76 229.578 188.279 231.546 217.59C231.546 217.59 213.041 231.381 247.274 270.556C247.274 270.556 255.398 268.754 257.636 267.448C258.931 266.692 269.758 258.123 269.758 258.123C266.65 257.014 261.241 253.844 259.77 250.021C257.905 245.182 260.402 239.401 264.95 238.624C267.675 238.157 269.219 239.369 271.167 241.545C271.167 241.545 266.681 235.878 266.961 233.681C267.313 230.936 274.089 228.024 274.586 225.299C274.814 224.014 271.799 221.486 272.597 220.419C276.659 215 296.065 221.279 294.075 203.313C292.086 185.347 298.883 187.927 297.432 183.047Z" fill="#263238" stroke="#263238" stroke-linecap="round" stroke-linejoin="round"/>
<path d="M296.718 241.069C296.718 242.488 296.438 243.649 295.982 243.659C295.526 243.669 295.143 242.53 295.101 241.11C295.06 239.691 295.381 238.53 295.827 238.52C296.272 238.51 296.676 239.67 296.718 241.069Z" fill="#263238"/>
<path d="M293.319 235.971C293.319 235.971 294.5 232.334 296.873 232.096" stroke="#263238" stroke-linecap="round" stroke-linejoin="round"/>
<path d="M267.893 207.986C279.518 208.908 269.903 191.843 269.903 191.843" stroke="#7F7F7F" stroke-linecap="round" stroke-linejoin="round"/>
<path d="M238.405 215.974C238.405 215.974 247.554 202.671 264.401 207.323" stroke="#7F7F7F" stroke-linecap="round" stroke-linejoin="round"/>
<path d="M283.818 200.36C284.958 206.266 283.818 214.161 270.245 215.114" stroke="#7F7F7F" stroke-linecap="round" stroke-linejoin="round"/>
<path d="M281.497 193.801C281.968 194.698 282.376 195.626 282.72 196.578" stroke="#7F7F7F" stroke-linecap="round" stroke-linejoin="round"/>
<path d="M294.055 449.99C294.055 449.99 304.54 342.006 292.107 321.626C279.674 301.246 242.508 277.333 229.215 287.694C183.088 323.812 182.932 354.657 180 449.969L294.055 449.99Z" fill="#263238" stroke="#263238" stroke-linecap="round" stroke-linejoin="round"/>
<path d="M283.932 317.741C283.932 317.741 298.593 321.595 306.726 343.643C314.218 363.879 327.832 390.558 336.919 403.852C337.637 404.871 338.629 405.667 339.781 406.147C340.932 406.627 342.195 406.773 343.425 406.566C347.425 405.934 355.051 405.447 362.355 401.479C369.121 397.801 375.099 393.77 382.621 394.869C390.144 395.967 394.858 402.961 393.646 413.063C392.485 422.699 349.165 447.762 323.584 447.762C302.717 447.762 283.642 390.486 277.27 373.411C270.898 356.336 264.246 318.87 283.932 317.741Z" fill="#263238" stroke="#263238" stroke-linecap="round" stroke-linejoin="round"/>
<path d="M276.213 320.041C278.121 318.63 280.411 317.828 282.782 317.741" stroke="#7F7F7F" stroke-linecap="round" stroke-linejoin="round"/>
<path d="M271.105 328.102C271.504 326.735 272.05 325.415 272.732 324.165" stroke="#7F7F7F" stroke-linecap="round" stroke-linejoin="round"/>
<path d="M292.532 409.54C286.336 397.836 280.855 385.767 276.12 373.4C272.152 362.76 268.069 344.213 270.318 331.48" stroke="#7F7F7F" stroke-linecap="round" stroke-linejoin="round"/>
<path d="M283.445 313.918C283.445 313.918 289.237 305.473 283.445 298.49C277.653 291.507 251.222 276.421 241.338 280.14C240.592 280.385 239.904 280.778 239.314 281.296C238.725 281.814 238.246 282.445 237.907 283.153C237.568 283.861 237.376 284.63 237.343 285.414C237.309 286.198 237.434 286.98 237.711 287.714C237.711 287.714 257.584 288.585 283.445 313.918Z" fill="#263238" stroke="#263238" stroke-linecap="round" stroke-linejoin="round"/>
<path d="M280.233 311.524C281.052 312.291 281.881 313.078 282.709 313.897" stroke="#7F7F7F" stroke-linecap="round" stroke-linejoin="round"/>
<path d="M244.498 289.268C251.367 291.341 262.474 296.221 275.685 307.483" stroke="#7F7F7F" stroke-linecap="round" stroke-linejoin="round"/>
<path d="M237.007 287.694C238.171 287.782 239.328 287.955 240.467 288.212" stroke="#7F7F7F" stroke-linecap="round" stroke-linejoin="round"/>
<path d="M342.69 420.761C342.69 420.761 342.69 414.71 339.509 413.052C336.328 411.395 338.929 420.761 335.748 428.48" stroke="#7F7F7F" stroke-linecap="round" stroke-linejoin="round"/>
<path d="M309.109 354.678C309.109 354.678 311.72 354.947 314.031 380.28" stroke="#7F7F7F" stroke-linecap="round" stroke-linejoin="round"/>
<path d="M269.706 258.061L271.924 258.475C271.997 261.593 272.735 264.659 274.089 267.469C276.161 271.323 279.104 272.059 286.015 279.56C292.459 286.544 295.423 281.995 295.796 281.342C295.447 282.165 294.892 282.883 294.184 283.428C293.476 283.973 292.639 284.325 291.755 284.451C284.657 285.145 280.357 282.938 279.705 288.937C278.565 284.295 274.856 278.711 271.924 271.727C270.142 267.403 269.383 262.726 269.706 258.061V258.061Z" fill="#263238" stroke="#263238" stroke-linecap="round" stroke-linejoin="round"/>
<path opacity="0.3" d="M272.732 253.699C273.55 248.922 268.587 239.193 271.188 241.452C273.789 243.711 277.177 252.041 281.228 255.212C285.279 258.382 284.896 265.811 290.687 262.692C293.212 261.286 296.184 260.914 298.976 261.656C298.845 261.99 298.751 262.338 298.697 262.692C297.733 268.474 298.883 283.705 291.775 284.399C289.728 284.551 287.673 284.596 285.621 284.534C281.601 280.327 275.861 274.079 273.664 270.453C270.11 264.64 271.924 258.475 272.732 253.699Z" fill="#263238"/>
<path d="M297.381 267.51C297.381 267.51 293.744 265.925 293.816 263.646" stroke="#263238" stroke-linecap="round" stroke-linejoin="round"/>
<defs>
<linearGradient id="paint0_linear_1_6" x1="118.97" y1="109.474" x2="255.973" y2="342.229" gradientUnits="userSpaceOnUse">
<stop stop-color="#76BDFF"/>
<stop offset="1" stop-color="#FF94EE"/>
</linearGradient>
</defs>
</svg>
